<svg width="372" height="295" viewBox="0 0 372 295" fill="none" xmlns="http://www.w3.org/2000/svg">
<g clip-path="url(#clip0_42_1620)">
<path d="M98.737 67.8068L54.4839 61.9265L63.4393 16.7224L110.978 26.0786L98.737 67.8068Z" fill="#2F2E41"/>
<path d="M56.1973 263.368V76.8843C56.1973 73.5049 58.9555 70.7555 62.3462 70.7555H365.851C369.241 70.7555 372 73.5049 372 76.8843V263.368C372 266.748 369.241 269.497 365.851 269.497H62.3462C58.9555 269.497 56.1973 266.748 56.1973 263.368ZM370.886 76.8843C370.886 74.1126 368.632 71.8658 365.851 71.8658H62.3462C59.5655 71.8658 57.3112 74.1126 57.3112 76.8843V263.368C57.3112 266.14 59.5655 268.387 62.3462 268.387H278.076C329.333 268.387 370.886 226.971 370.886 175.881V76.8843Z" fill="#3F3D56"/>
<path d="M341.271 98.6773L336.688 96.513C338.568 99.1282 340.188 103.213 341.055 106.463C342.523 103.435 344.891 99.7309 347.234 97.5181L342.389 98.7604C345.374 84.1779 356.603 73.7091 369.46 73.7091L369.642 73.1824C356.212 73.1824 344.319 83.506 341.271 98.6773Z" fill="#3F3D56"/>
<path d="M362.369 120.896H333.407C332.178 120.896 331.179 119.9 331.179 118.676C331.179 117.451 332.178 116.455 333.407 116.455H362.369C363.598 116.455 364.597 117.451 364.597 118.676C364.597 119.9 363.598 120.896 362.369 120.896Z" fill="#1F94F3"/>
<path d="M276.378 137.575V196.42C276.378 201.624 272.13 205.857 266.909 205.857H207.87C202.649 205.857 198.402 201.624 198.402 196.42V137.575C198.402 132.371 202.649 128.137 207.87 128.137H266.909C272.13 128.137 276.378 132.371 276.378 137.575ZM263.247 204.747C269.884 204.747 275.264 199.384 275.264 192.769V166.752C275.264 146.039 258.417 129.247 237.635 129.247H207.87C203.256 129.247 199.516 132.976 199.516 137.575V188.21C199.516 197.343 206.944 204.747 216.108 204.747H263.247Z" fill="#3F3D56"/>
<path d="M245.249 152.171H226.189C225.708 152.171 225.317 151.781 225.317 151.302C225.317 150.823 225.708 150.433 226.189 150.433H245.249C245.729 150.433 246.12 150.823 246.12 151.302C246.12 151.781 245.729 152.171 245.249 152.171Z" fill="#3F3D56"/>
<path d="M245.249 170.692H226.189C225.708 170.692 225.317 170.302 225.317 169.824C225.317 169.345 225.708 168.955 226.189 168.955H245.249C245.729 168.955 246.12 169.345 246.12 169.824C246.12 170.302 245.729 170.692 245.249 170.692Z" fill="#3F3D56"/>
<path d="M235.781 196.229H216.721C216.24 196.229 215.849 195.839 215.849 195.36C215.849 194.881 216.24 194.492 216.721 194.492H235.781C236.261 194.492 236.652 194.881 236.652 195.36C236.652 195.839 236.261 196.229 235.781 196.229Z" fill="#3F3D56"/>
<path d="M255.477 161.437H215.961C215.481 161.437 215.09 161.048 215.09 160.569C215.09 160.09 215.481 159.7 215.961 159.7H255.477C255.957 159.7 256.348 160.09 256.348 160.569C256.348 161.048 255.957 161.437 255.477 161.437Z" fill="#3F3D56"/>
<path d="M102.271 167.998H36.9521C42.4271 155.821 45.793 144.224 40.5312 134.999L102.271 131.432C99.1855 143.885 98.8084 156.106 102.271 167.998Z" fill="#FFB6B6"/>
<path d="M124.767 269.497H76.7475C76.4001 269.497 76.0833 269.299 75.9318 268.988L75.6393 268.387L69.258 255.331C68.8472 254.49 67.5828 254.749 67.5375 255.683L66.9227 268.387L66.9101 268.639C66.886 269.119 66.4878 269.497 66.0047 269.497H18.7255C18.2477 269.497 17.8517 269.127 17.8203 268.652C17.8145 268.563 17.8088 268.475 17.8034 268.387C14.7847 221.949 25.64 190.472 32.0062 176.388L32.0118 176.383C34.5126 170.842 36.3283 167.995 36.3283 167.995L36.9577 167.989H36.9633L49.6789 167.767H49.6845L60.9464 167.578L69.4569 167.439L72.8712 167.378H72.8767L75.0155 167.345L85.6481 167.162L95.1444 167.001L101.962 166.89H102.151L103.165 171.248V171.253L103.204 171.448V171.453L103.377 172.169L103.382 172.191L103.727 173.696V173.707L103.75 173.79V173.796L103.833 174.157L103.839 174.173L104.641 177.632L105.939 183.255L107.648 190.611L109.804 199.949L110.896 204.651L112.394 211.129L125.65 268.387C125.783 268.954 125.352 269.497 124.767 269.497Z" fill="#2F2E41"/>
<path d="M92.8407 59.558L66.8463 58.6539L56.5711 72.3874L51.1646 73.5576C43.06 75.3117 37.5004 82.762 38.1461 91.0032L40.6022 148.098L41.7161 154.76L102.983 164.753L116.759 78.3458L98.6318 71.8548L92.8407 59.558Z" fill="#1F94F3"/>
<path d="M83.3545 57.3924C96.241 57.3924 106.688 46.9801 106.688 34.1359C106.688 21.2917 96.241 10.8794 83.3545 10.8794C70.468 10.8794 60.0215 21.2917 60.0215 34.1359C60.0215 46.9801 70.468 57.3924 83.3545 57.3924Z" fill="#FFB6B6"/>
<path d="M343.197 267.338L322.969 259.845C319.935 258.721 318.384 255.347 319.511 252.322L339.384 199.023C340.512 195.999 343.897 194.453 346.931 195.577L367.16 203.07C370.194 204.194 371.745 207.568 370.617 210.592C363.013 232.135 354.719 256.341 350.744 263.892C349.617 266.916 346.231 268.462 343.197 267.338Z" fill="#3F3D56"/>
<path d="M365.634 224.818C365.506 224.77 365.363 224.836 365.315 224.964L362.547 232.388C362.499 232.516 362.565 232.659 362.693 232.706C362.821 232.754 362.965 232.688 363.012 232.56L365.781 225.136C365.828 225.008 365.763 224.865 365.634 224.818Z" fill="#3F3D56"/>
<path d="M370.093 210.398L350.221 263.697C349.239 266.329 346.381 267.721 343.72 266.925L343.719 266.925C343.679 266.913 343.64 266.901 343.6 266.887C343.53 266.865 343.461 266.841 343.391 266.815C343.391 266.815 343.142 266.702 342.687 266.494C342.228 266.284 341.559 265.977 340.727 265.591C340.477 265.476 340.214 265.353 339.936 265.224C339.383 264.966 338.776 264.683 338.126 264.377C337.867 264.255 337.599 264.128 337.325 263.999C335.926 263.34 334.361 262.595 332.715 261.798C332.436 261.664 332.156 261.529 331.873 261.391C331.799 261.354 319.803 253.137 320.035 252.516L339.908 199.217C340.93 196.476 343.987 195.08 346.737 196.099L349.71 197.2C350.185 197.376 350.429 197.886 350.294 198.373C350.285 198.406 350.277 198.438 350.271 198.472C350.181 198.978 350.494 199.471 350.978 199.65L361.426 203.52C361.911 203.7 362.47 203.531 362.733 203.088C362.751 203.059 362.766 203.029 362.781 202.999C362.998 202.542 363.517 202.314 363.992 202.49L366.965 203.591C369.715 204.61 371.115 207.657 370.093 210.398Z" fill="#1F94F3"/>
<path d="M336.078 207.532C335.95 207.485 335.807 207.55 335.759 207.678L335.067 209.534C335.02 209.662 335.085 209.805 335.214 209.853C335.342 209.9 335.485 209.835 335.533 209.707L336.224 207.851C336.272 207.723 336.206 207.58 336.078 207.532Z" fill="#3F3D56"/>
<path d="M334.003 213.101C333.874 213.053 333.731 213.119 333.684 213.247L332.343 216.843C332.295 216.971 332.361 217.114 332.489 217.161C332.617 217.209 332.761 217.143 332.808 217.015L334.149 213.419C334.197 213.291 334.131 213.148 334.003 213.101Z" fill="#3F3D56"/>
<path d="M332.1 218.205C331.971 218.158 331.828 218.223 331.78 218.351L330.439 221.947C330.392 222.075 330.457 222.218 330.586 222.265C330.714 222.313 330.857 222.248 330.905 222.12L332.246 218.523C332.294 218.396 332.228 218.253 332.1 218.205Z" fill="#3F3D56"/>
<path d="M349.325 197.982L344.876 196.334C344.851 196.324 344.823 196.337 344.814 196.362L344.631 196.852C344.622 196.877 344.634 196.905 344.659 196.914L349.109 198.562C349.133 198.571 349.161 198.558 349.17 198.534L349.353 198.043C349.362 198.018 349.35 197.991 349.325 197.982Z" fill="#E6E6E6"/>
<path d="M364.381 204.186C364.655 204.186 364.878 203.964 364.878 203.691C364.878 203.418 364.655 203.196 364.381 203.196C364.107 203.196 363.885 203.418 363.885 203.691C363.885 203.964 364.107 204.186 364.381 204.186Z" fill="#E6E6E6"/>
<path d="M365.661 204.66C365.936 204.66 366.158 204.439 366.158 204.165C366.158 203.892 365.936 203.67 365.661 203.67C365.387 203.67 365.165 203.892 365.165 204.165C365.165 204.439 365.387 204.66 365.661 204.66Z" fill="#E6E6E6"/>
<path d="M366.942 205.135C367.216 205.135 367.438 204.913 367.438 204.64C367.438 204.366 367.216 204.145 366.942 204.145C366.668 204.145 366.445 204.366 366.445 204.64C366.445 204.913 366.668 205.135 366.942 205.135Z" fill="#E6E6E6"/>
<path d="M293.6 99.0342H276.133C273.885 99.0342 272.056 97.2115 272.056 94.9712V75.34C272.056 73.0996 273.885 71.277 276.133 71.277H293.6C295.848 71.277 297.677 73.0996 297.677 75.34V94.9712C297.677 97.2115 295.848 99.0342 293.6 99.0342Z" fill="white"/>
<path d="M293.6 99.0342H276.132C273.885 99.0342 272.056 97.2115 272.056 94.9712C271.178 87.7424 270.936 81.01 272.056 75.34C272.056 73.0996 273.885 71.277 276.132 71.277H293.6C295.848 71.277 297.677 73.0996 297.677 75.34V94.9712C297.677 97.2115 295.848 99.0342 293.6 99.0342ZM276.132 71.8321C274.192 71.8321 272.613 73.4057 272.613 75.34V94.9712C272.613 96.9055 274.192 98.479 276.132 98.479H293.6C295.541 98.479 297.12 96.9055 297.12 94.9712V75.34C297.12 73.4057 295.541 71.8321 293.6 71.8321H276.132Z" fill="#3F3D56"/>
<path d="M291.835 83.2126H277.443C276.832 83.2126 276.335 82.7176 276.335 82.1091C276.335 81.5007 276.832 81.0056 277.443 81.0056H291.835C292.446 81.0056 292.942 81.5007 292.942 82.1091C292.942 82.7176 292.446 83.2126 291.835 83.2126Z" fill="#1F94F3"/>
<path d="M291.835 89.3192H277.443C276.832 89.3192 276.335 88.8241 276.335 88.2157C276.335 87.6072 276.832 87.1122 277.443 87.1122H291.835C292.446 87.1122 292.942 87.6072 292.942 88.2157C292.942 88.8241 292.446 89.3192 291.835 89.3192Z" fill="#1F94F3"/>
<path d="M291.835 77.1059H277.443C276.832 77.1059 276.335 76.6109 276.335 76.0024C276.335 75.394 276.832 74.8989 277.443 74.8989H291.835C292.446 74.8989 292.942 75.394 292.942 76.0024C292.942 76.6109 292.446 77.1059 291.835 77.1059Z" fill="#1F94F3"/>
<path d="M75.4208 64.6326C76.6993 67.035 78.4162 68.9503 80.2366 70.1895L90.9661 93.8422L102.109 88.4241L90.0249 65.0142C90.0165 62.8171 89.3883 60.3261 88.1098 57.9237C85.189 52.4354 79.9806 49.4882 76.4766 51.3409C72.9727 53.1935 72.4999 59.1444 75.4208 64.6326Z" fill="#FFB6B6"/>
<path d="M99.5806 79.541C99.5806 79.541 115.923 71.0053 120.993 79.9677C125.32 87.6146 128.445 125.879 129.27 136.948C129.415 138.891 128.906 140.82 127.824 142.442C124.619 147.247 117.71 147.705 113.895 143.366L80.7803 78.3769L96.488 70.9363L100.33 80.2099L99.5806 79.541Z" fill="#1F94F3"/>
<path d="M134.52 171.096C134.878 170.59 135.09 169.972 135.09 169.305V112.35C135.09 110.632 133.692 109.238 131.968 109.238H45.5926C43.8683 109.238 42.4704 110.632 42.4704 112.35V169.305C42.4704 169.972 42.6819 170.59 43.0406 171.096H32.2529V174.082C69.7595 176.173 107.444 176.173 145.307 174.082V171.096H134.52Z" fill="#3F3D56"/>
<path d="M227.321 295H209.853C207.606 295 205.777 293.177 205.777 290.937V271.306C205.777 269.065 207.606 267.243 209.853 267.243H227.321C229.569 267.243 231.398 269.065 231.398 271.306V290.937C231.398 293.177 229.569 295 227.321 295Z" fill="white"/>
<path d="M227.321 295H209.853C207.605 295 205.777 293.177 205.777 290.937C204.898 283.708 204.656 276.976 205.777 271.306C205.777 269.065 207.605 267.243 209.853 267.243H227.321C229.569 267.243 231.397 269.065 231.397 271.306V290.937C231.397 293.177 229.569 295 227.321 295ZM209.853 267.798C207.912 267.798 206.334 269.371 206.334 271.306V290.937C206.334 292.871 207.912 294.445 209.853 294.445H227.321C229.262 294.445 230.84 292.871 230.84 290.937V271.306C230.84 269.371 229.262 267.798 227.321 267.798H209.853Z" fill="#3F3D56"/>
<path d="M225.556 279.178H211.163C210.553 279.178 210.056 278.683 210.056 278.075C210.056 277.466 210.553 276.971 211.163 276.971H225.556C226.167 276.971 226.663 277.466 226.663 278.075C226.663 278.683 226.167 279.178 225.556 279.178Z" fill="#1F94F3"/>
<path d="M225.556 285.285H211.163C210.553 285.285 210.056 284.79 210.056 284.181C210.056 283.573 210.553 283.078 211.163 283.078H225.556C226.167 283.078 226.663 283.573 226.663 284.181C226.663 284.79 226.167 285.285 225.556 285.285Z" fill="#1F94F3"/>
<path d="M225.556 273.072H211.163C210.553 273.072 210.056 272.577 210.056 271.968C210.056 271.36 210.553 270.865 211.163 270.865H225.556C226.167 270.865 226.663 271.36 226.663 271.968C226.663 272.577 226.167 273.072 225.556 273.072Z" fill="#1F94F3"/>
<path d="M74.9341 163.561C72.2058 163.576 69.7069 164.203 67.761 165.235L41.7611 163.736L41.4072 176.088L67.8197 176.279C69.7764 177.291 72.2818 177.892 75.0101 177.878C81.2431 177.845 86.2788 174.613 86.2578 170.66C86.2368 166.707 81.1671 163.528 74.9341 163.561Z" fill="#FFB6B6"/>
<path d="M49.9543 73.6C49.9543 73.6 27.8523 71.1454 22.2222 84.812C17.9213 95.2519 6.74786 135.941 0.477834 159.236C-1.81451 167.753 4.41748 176.186 13.2576 176.535L52.2986 178.076L54.5567 160.862L26.6779 156.426L42.2731 109.793L49.9543 73.6Z" fill="#1F94F3"/>
<path d="M106.693 16.1816C107.816 10.518 100.929 8.31831 95.7722 5.69041L91.3939 1.99938C86.8037 -0.339642 81.4366 -0.64042 76.6123 1.17101L61.5564 6.16626C54.7224 8.73228 52.3378 14.8406 48.3998 20.9704L41.7986 29.7541C37.922 35.7884 39.0809 45.2092 39.9901 52.3171L40.371 55.2956L36.7441 63.9401L64.6175 68.9L70.2356 55.5593L66.7296 49.2187C65.4857 46.969 65.9835 44.1592 67.9252 42.4701C74.9101 36.3944 76.2483 25.9667 76.2483 25.9667L82.1531 31.1569C86.4444 32.7616 90.4058 33.589 94.0429 33.6518C98.0429 33.7209 101.651 32.8652 104.873 31.1016L105.44 39.7012C103.775 49.8673 101.289 52.1028 90.0882 59.8801L103.569 73.2777L104.2 67.822C105.703 54.8437 112.196 45.811 113.954 35.3691C115.17 28.1488 112.364 20.8355 106.693 16.1816Z" fill="#2F2E41"/>
</g>
<defs>
<clipPath id="clip0_42_1620">
<rect width="372" height="295" fill="white"/>
</clipPath>
</defs>
</svg>
