<svg width="443" height="295" viewBox="0 0 443 295" fill="none" xmlns="http://www.w3.org/2000/svg">
<g clip-path="url(#clip0_42_1438)">
<path d="M171.274 26.6514H117.528C115.684 26.6514 114.184 25.15 114.184 23.3047C114.184 21.4594 115.684 19.9581 117.528 19.9581H171.274C173.118 19.9581 174.618 21.4594 174.618 23.3047C174.618 25.15 173.118 26.6514 171.274 26.6514Z" fill="#E6E7E8"/>
<path d="M213.218 37.9785H117.528C115.684 37.9785 114.184 36.4772 114.184 34.6319C114.184 32.7866 115.684 31.2852 117.528 31.2852H213.218C215.062 31.2852 216.562 32.7866 216.562 34.6319C216.562 36.4772 215.062 37.9785 213.218 37.9785Z" fill="#E6E7E8"/>
<path d="M213.218 49.2038H117.528C115.684 49.2038 114.184 47.7025 114.184 45.8572C114.184 44.0119 115.684 42.5105 117.528 42.5105H213.218C215.062 42.5105 216.562 44.0119 216.562 45.8572C216.562 47.7025 215.062 49.2038 213.218 49.2038Z" fill="#E6E7E8"/>
<path d="M223.354 107.457V105.853C204.859 105.853 188.708 90.7327 184.414 69.671L191.383 71.4652C188.012 68.2693 184.607 62.9192 182.495 58.5466C181.247 63.2407 178.917 69.1397 176.212 72.9169L182.806 69.791C187.19 91.7031 204.036 107.457 223.354 107.457Z" fill="#3F3D56"/>
<path d="M216.358 46.0876C216.358 47.8561 214.921 49.2949 213.154 49.2949H171.493C169.726 49.2949 168.288 47.8561 168.288 46.0876C168.288 44.3192 169.726 42.8804 171.493 42.8804H213.154C214.921 42.8804 216.358 44.3192 216.358 46.0876Z" fill="#1F94F3"/>
<path d="M28.7649 224.743C28.1307 222.533 27.0447 220.648 25.7516 219.303L21.0539 197.871L10.814 200.382L16.6819 221.852C16.296 223.669 16.3732 225.838 17.0074 228.048C18.4563 233.097 22.2628 236.45 25.5095 235.538C28.7563 234.625 30.2137 229.793 28.7649 224.743Z" fill="#FFB6B6"/>
<path d="M27.3485 84.1544C27.3485 84.1544 16.2884 83.7724 9.87901 90.9886C2.53583 99.9659 -2.48356 135.142 1.28452 137.51L11.4936 210.062L26.0515 208.06L22.3153 121.009L27.3485 84.1544Z" fill="#1F94F3"/>
<path d="M102.014 206.448L99.364 294.997H61.3084L59.7702 260.865L53.0083 294.997H12.2207L17.3081 236.321L22.5638 223.982L26.121 215.619L102.014 206.448Z" fill="#2F2E41"/>
<path d="M71.7873 69.6905L45.3487 68.0869L36.5358 79.3122C28.9245 80.9432 22.0497 83.0488 17.3077 86.5284C18.4423 120.145 15.95 163.856 26.1206 172.321L17.0894 236.115C17.0894 236.115 20.7314 232.992 26.8153 234.095C28.9171 234.476 31.4544 239.214 34.037 239.501C53.8818 241.708 86.063 239.439 102.013 206.448L95.8225 158.691L97.4248 88.9338C92.4156 84.9711 86.1878 82.3957 78.9979 80.9158L71.7873 69.6905Z" fill="#1F94F3"/>
<path d="M122.686 50.1756C122.973 52.9554 122.609 55.5696 121.77 57.6656L126.174 83.9743L113.604 85.7054L110.49 58.8315C109.24 56.9513 108.35 54.4668 108.063 51.687C107.408 45.3365 110.15 39.8501 114.188 39.4328C118.226 39.0154 122.031 43.8251 122.686 50.1756Z" fill="#FFB6B6"/>
<path d="M80.8946 90.9438C79.5785 92.8872 79.9452 95.0717 79.6309 97.6963C78.2969 108.839 99.6317 141.763 114.394 145.554C116.331 146.052 117.435 148.143 119.39 148.564C125.182 149.81 130.575 145.209 130.262 139.288L126.252 63.3505L109.406 69.101L110.484 108.526C110.377 100.359 102.883 92.0423 97.2066 88.5832C97.2066 88.5832 85.709 83.8348 80.8946 90.9438Z" fill="#1F94F3"/>
<path d="M61.3121 66.012C74.1739 66.012 84.6003 55.5773 84.6003 42.7054C84.6003 29.8335 74.1739 19.3988 61.3121 19.3988C48.4504 19.3988 38.0239 29.8335 38.0239 42.7054C38.0239 55.5773 48.4504 66.012 61.3121 66.012Z" fill="#FFB6B6"/>
<path d="M83.004 25.5913C82.8037 25.6395 86.0695 22.4538 86.2086 22.3841C89.4133 20.7805 86.1205 36.4558 83.8051 36.0148C78.1088 34.9323 75.6492 32.7835 73.438 38.1476C72.8211 39.6389 72.4365 41.3227 71.2348 42.3891C69.5843 43.8404 66.8444 43.7201 65.4984 45.452C64.4168 46.8472 64.7293 48.8998 65.5304 50.4713C66.3316 52.0509 67.5494 53.3899 68.2784 55.0015C69.0956 56.8136 65.6105 62.5785 64.2806 65.8178V65.8258L64.2727 65.8448C63.9193 66.6945 63.0795 64.2469 62.1929 64.0025C61.132 63.7102 59.569 66.2173 57.8792 65.7617C57.8712 65.7617 57.8632 65.7537 57.8552 65.7537C56.2448 65.3046 54.4502 64.8236 52.6716 64.3425H52.6636C47.6563 62.9794 46.3904 64.9359 46.1501 64.8797L43.0415 61.6244C41.9747 60.847 42.0953 58.3375 41.3431 57.6635C40.7279 57.1123 39.1942 58.386 38.7422 57.8562C36.5258 55.2583 36.0159 52.6595 34.7093 47.5287C33.5156 42.8381 31.04 28.7986 36.1274 28.1651C40.9264 27.5637 37.4173 20.8767 42.2484 21.1253C41.96 19.9065 42.4968 18.5996 43.37 17.7016C44.2353 16.7955 45.389 16.2343 46.5507 15.7532C52.2791 13.4119 51.3257 11.3995 57.3665 12.7625C57.9674 11.9206 65.6725 9.72579 66.7621 10.0065C66.8422 10.0225 65.0817 13.4441 69.384 12.7625C69.2238 13.7487 71.5692 11.6101 71.7875 15.1679C76.3762 12.4119 78.8459 19.0085 78.9981 19.9787C79.1984 21.1895 77.3717 20.572 78.5895 20.7564C79.3106 20.8687 80.5443 22.336 80.4242 23.0656C80.9449 22.3601 81.4657 21.6625 81.9945 20.9569C82.0906 20.9649 82.1787 20.981 82.2749 20.997C84.7104 21.462 81.9182 29.4303 82.0185 26.9464C82.2028 22.3841 85.4315 25.0541 83.004 25.5913Z" fill="#2F2E41"/>
<path d="M380.051 20.813C379.191 27.8908 378.251 34.9588 377.231 42.0154C376.817 44.8815 376.379 47.784 375.227 50.4404C374.44 52.2536 373.339 53.9094 372.243 55.5542C370.949 57.4978 369.633 59.4662 367.875 61.0026C366.117 62.539 363.833 63.6178 361.506 63.4373C367.68 59.2778 371.83 52.2428 372.485 44.8232C372.793 41.3355 372.371 37.8297 372.289 34.3294C372.208 30.8291 372.501 27.2069 374.115 24.1004C375.728 20.9938 378.916 18.5071 382.413 18.5954L380.051 20.813Z" fill="#2F2E41"/>
<path d="M317.478 171.771C312.455 175.849 306.28 176.561 303.687 173.361C301.094 170.162 303.065 164.262 308.089 160.185C310.288 158.4 312.707 157.26 314.95 156.81L336.454 139.799L344.216 150.068L322.194 165.748C321.291 167.852 319.677 169.986 317.478 171.771Z" fill="#A0616A"/>
<path d="M321.54 148.677L353.581 118.25L356.786 115.845C356.786 115.845 375.179 97.911 379.942 97.5003C381.959 97.3268 383.976 97.83 385.676 98.9349C388.421 100.717 389.843 103.649 389.843 106.605C389.843 109.075 388.849 111.557 386.814 113.385L357.48 139.74L345.001 150.95L329.482 164.897L327.904 161.681L322.569 150.782L321.54 148.677Z" fill="#1F94F3"/>
<path d="M390.052 128.085L357.971 137.919C363.342 139.433 365.591 172.188 360.592 173.205C360.592 173.205 413.762 176.99 410.86 173.205C407.324 168.591 412.067 137.932 414.328 137.919L390.052 128.085Z" fill="#A0616A"/>
<path d="M432.741 295L429.937 261.132C429.937 249.017 429.152 238.072 427.894 228.314C422.855 189.146 410.22 169.069 410.22 169.069H362.951C362.887 169.141 362.823 169.197 362.759 169.269L362.751 169.277C351.599 181.008 345.798 210.506 343.218 228.314C341.993 236.789 341.496 242.618 341.496 242.618L336.873 283.735L340.214 295H367.718L367.286 292.587L384.983 228.314L385.2 227.528L385.392 228.314L401.8 295L432.741 295Z" fill="#2F2E41"/>
<path d="M363.92 108.548L373.908 88.3686L382.325 73.7082L389.131 66.7667H407.757L409.491 73.7082L419.895 79.4928L423.575 108.416L410.464 171.169C394.858 158.443 362.692 154.918 362.692 154.918L357.48 139.74L354.035 121.454L353.619 119.268L363.92 108.548Z" fill="#1F94F3"/>
<path d="M362.722 145.051C356.256 144.867 351.109 141.38 351.226 137.262C351.342 133.144 356.678 129.955 363.144 130.139C365.975 130.219 368.552 130.932 370.546 132.055L397.934 133.177L397.134 146.028L370.22 143.558C368.166 144.565 365.552 145.131 362.722 145.051Z" fill="#A0616A"/>
<path d="M397.746 101.186L423.581 126.855L378.581 131.467L368.123 146.188L430.845 148.27C436.504 150.286 442.532 146.372 442.998 140.379C443.155 138.355 430.27 87.0007 422.469 82.2332C413.326 76.6454 397.746 101.186 397.746 101.186Z" fill="#1F94F3"/>
<path d="M415.692 41.5796C415.88 29.9203 406.588 20.3161 394.938 20.1281C383.288 19.9401 373.691 29.2394 373.503 40.8988C373.315 52.5581 382.607 62.1623 394.258 62.3503C405.908 62.5383 415.504 53.2389 415.692 41.5796Z" fill="#A0616A"/>
<path d="M440.909 107.025C440.38 109.029 436.262 110.064 435.301 112.637C432.24 114.385 433.899 100.105 432.665 99.167C431.711 98.4534 431.455 100.177 431.239 98.694C430.421 93.1294 425.078 94.3722 421.12 93.4742C420.671 92.6003 420.327 91.7504 420.102 90.9245C419.702 89.4331 417.875 88.9119 416.794 90.0104C416.305 89.5775 415.952 88.046 415.608 86.5146C415.359 85.4 415.111 84.2856 414.823 83.58L412.067 77.358L412.956 81.9924C411.153 81.3429 409.335 82.0165 408.285 79.7874C406.939 76.925 406.402 73.5734 407.38 70.5667C408.269 67.8406 409.767 62.3803 411.458 57.8581C409.543 59.2452 407.244 60.2555 404.576 60.7606C405.521 58.9646 406.483 57.1365 406.883 55.14C407.276 53.1435 407.035 50.9225 405.769 49.3349C404.728 48.028 403.19 48.3567 401.892 47.3063C400.882 46.4885 400.009 44.3958 399.4 43.2492C401.996 51.8847 403.959 61.0573 400.658 69.2999C398.375 75.0087 393.568 79.6511 387.799 81.7599C390.868 79.5629 393.864 77.2216 396.163 74.2389C398.623 71.0398 400.225 66.9986 399.737 62.9896C398.968 56.6955 387.302 36.7867 385.868 32.8739C386.654 36.6985 386.349 39.6812 384.282 41.3249C383.745 35.7765 377.704 36.2815 374.412 34.0606C374.412 34.0606 371.864 19.6521 377.841 19.5639C380.725 19.5239 383.745 12.7406 386.365 11.5299C390.547 9.59754 393.111 10.9125 397.75 11.0568C402.38 11.1931 406.827 13.1896 409.655 16.8538C411.137 18.7702 411.682 17.2467 413.909 18.4414C416.024 19.572 417.45 18.5216 419.846 18.5937C424.645 18.7221 429.3 21.2878 431.992 25.2567C434.684 29.2337 436.342 28.8648 435.277 35.0147C435.261 35.0869 435.261 35.2312 435.277 35.4477C435.861 45.1335 434.363 54.8433 430.526 63.7594C429.34 66.5015 435.14 69.3318 435.132 72.7555C435.124 76.7324 428.723 80.3567 429.316 82.0565C431.014 90.243 440.556 88.4229 438.305 102.126C438.121 103.24 441.261 105.686 440.909 107.025Z" fill="#2F2E41"/>
<path d="M382.461 81.9529C382.638 81.8968 382.814 81.8327 382.991 81.7605C382.766 81.9209 382.55 82.0732 382.325 82.2336L382.461 81.9529Z" fill="#2F2E41"/>
<path d="M412.178 14.4006C409.883 14.7419 407.552 10.9313 408.855 5.64688C411.695 9.9923 413.146 14.8842 413.375 20.2575L411.844 20.732L412.178 14.4006Z" fill="#1F94F3"/>
<path d="M423.904 9.46808C422.338 15.0219 414.385 18.7388 412.98 16.806L412.819 20.118L411.836 18.852C414.688 14.607 418.576 11.3504 423.904 9.46808Z" fill="#1F94F3"/>
<path d="M249.261 159.233C249.261 157.388 250.761 155.887 252.605 155.887H306.351C308.195 155.887 309.695 157.388 309.695 159.233C309.695 161.079 308.195 162.58 306.351 162.58H252.605C250.761 162.58 249.261 161.079 249.261 159.233Z" fill="#E6E7E8"/>
<path d="M249.261 181.684C249.261 179.838 250.761 178.337 252.605 178.337H306.351C308.195 178.337 309.695 179.838 309.695 181.684C309.695 183.529 308.195 185.03 306.351 185.03H252.605C250.761 185.03 249.261 183.529 249.261 181.684Z" fill="#E6E7E8"/>
<path d="M210.661 173.907C208.817 173.907 207.317 172.406 207.317 170.56C207.317 168.715 208.817 167.214 210.661 167.214H306.351C308.195 167.214 309.695 168.715 309.695 170.56C309.695 172.406 308.195 173.907 306.351 173.907H210.661Z" fill="#E6E7E8"/>
<path d="M203.547 141.877L196.954 138.751C199.658 142.528 201.988 148.427 203.236 153.121C205.348 148.749 208.753 143.398 212.124 140.203L205.155 141.997C209.449 120.935 225.6 105.815 244.096 105.815V104.211C224.777 104.211 207.932 119.965 203.547 141.877Z" fill="#3F3D56"/>
<path d="M233.895 173.968H192.234C190.467 173.968 189.029 172.529 189.029 170.761C189.029 168.992 190.467 167.554 192.234 167.554H233.895C235.662 167.554 237.1 168.992 237.1 170.761C237.1 172.529 235.662 173.968 233.895 173.968Z" fill="#1F94F3"/>
<path d="M246.062 108.376C247.172 101.532 242.528 95.0837 235.69 93.9731C228.851 92.8625 222.408 97.5102 221.298 104.354C220.188 111.198 224.832 117.647 231.671 118.757C238.509 119.868 244.953 115.22 246.062 108.376Z" fill="#3F3D56"/>
<path d="M165.58 15.4866C169.854 15.4866 173.318 12.0198 173.318 7.74331C173.318 3.4668 169.854 0 165.58 0C161.307 0 157.843 3.4668 157.843 7.74331C157.843 12.0198 161.307 15.4866 165.58 15.4866Z" fill="#E6E7E8"/>
<path d="M256.113 149.388C260.386 149.388 263.85 145.921 263.85 141.644C263.85 137.368 260.386 133.901 256.113 133.901C251.84 133.901 248.375 137.368 248.375 141.644C248.375 145.921 251.84 149.388 256.113 149.388Z" fill="#E6E7E8"/>
</g>
<defs>
<clipPath id="clip0_42_1438">
<rect width="443" height="295" fill="white"/>
</clipPath>
</defs>
</svg>
