<svg width="400" height="295" viewBox="0 0 400 295" fill="none" xmlns="http://www.w3.org/2000/svg">
<g clip-path="url(#clip0_42_1383)">
<path d="M283.923 216.365H68.5176C66.5983 216.363 64.7583 215.602 63.4011 214.248C62.044 212.894 61.2805 211.058 61.2783 209.143V34.1587C61.2805 32.2439 62.044 30.4082 63.4011 29.0542C64.7583 27.7003 66.5983 26.9386 68.5176 26.9364H283.923C285.842 26.9386 287.682 27.7003 289.04 29.0542C290.397 30.4082 291.16 32.2439 291.162 34.1587V209.143C291.16 211.058 290.397 212.894 289.04 214.248C287.682 215.602 285.842 216.363 283.923 216.365Z" fill="#E6E6E6"/>
<path d="M73.402 32.0771C71.5532 32.0792 69.7807 32.8129 68.4734 34.1172C67.1661 35.4215 66.4308 37.1898 66.4287 39.0343V204.272C66.4309 206.116 67.1663 207.884 68.4736 209.189C69.7808 210.493 71.5533 211.226 73.402 211.228H220.839C238.118 211.209 254.684 204.352 266.903 192.162C279.121 179.973 285.994 163.445 286.014 146.206V39.0343C286.012 37.1898 285.276 35.4215 283.969 34.1172C282.662 32.8129 280.889 32.0793 279.04 32.0771L73.402 32.0771Z" fill="white"/>
<path d="M244.644 106.392H205.586C204.771 106.391 203.99 106.068 203.414 105.493C202.838 104.918 202.514 104.139 202.513 103.326V83.932C202.514 83.1193 202.838 82.3402 203.414 81.7655C203.99 81.1909 204.771 80.8676 205.586 80.8667H244.644C245.458 80.8676 246.239 81.1909 246.815 81.7655C247.391 82.3402 247.715 83.1193 247.716 83.932C250.133 90.7953 250.476 97.3166 247.716 103.326C247.715 104.139 247.391 104.918 246.815 105.493C246.239 106.068 245.458 106.391 244.644 106.392Z" fill="#E6E6E6"/>
<path d="M240.016 104.517H206.833C206.141 104.517 205.477 104.242 204.988 103.754C204.498 103.266 204.223 102.604 204.222 101.913V85.4356C204.223 84.7451 204.498 84.0831 204.988 83.5949C205.477 83.1066 206.141 82.832 206.833 82.8313H240.016C240.709 82.832 241.372 83.1066 241.861 83.5949C242.351 84.0831 242.626 84.7451 242.627 85.4356C244.866 91.3038 245.227 96.8568 242.627 101.913C242.626 102.604 242.351 103.266 241.861 103.754C241.372 104.242 240.709 104.517 240.016 104.517Z" fill="white"/>
<path d="M238.227 116.551H211.916C211.142 116.552 210.399 116.247 209.851 115.702C209.302 115.156 208.994 114.416 208.992 113.644C208.991 112.872 209.297 112.131 209.843 111.584C210.389 111.037 211.131 110.728 211.905 110.727H238.227C239 110.728 239.741 111.035 240.287 111.581C240.834 112.127 241.14 112.867 241.14 113.639C241.14 114.41 240.834 115.15 240.287 115.696C239.741 116.242 239 116.55 238.227 116.551Z" fill="#E6E6E6"/>
<path d="M220.536 87.2805C220.234 87.2815 219.944 87.4021 219.73 87.6157C219.516 87.8294 219.396 88.1189 219.395 88.4208V100.765C219.395 100.965 219.447 101.161 219.547 101.333C219.647 101.506 219.79 101.65 219.963 101.75C220.136 101.85 220.332 101.903 220.532 101.904C220.731 101.905 220.928 101.853 221.101 101.754L232.023 95.5417C232.198 95.4421 232.344 95.2977 232.446 95.1234C232.547 94.949 232.6 94.751 232.599 94.5495C232.599 94.348 232.545 94.1503 232.442 93.9765C232.34 93.8028 232.194 93.6592 232.017 93.5605L221.097 87.4282C220.926 87.3316 220.733 87.2808 220.536 87.2805Z" fill="#E6E6E6"/>
<path d="M379.873 271.382C379.271 270.618 378.453 270.051 377.525 269.755C376.596 269.459 375.601 269.447 374.666 269.721L374.461 269.782L372.627 276.924C372.353 275.86 371.765 273.457 371.394 271.104L371.362 270.91L371.18 270.99C369.263 271.835 367.461 272.919 365.816 274.215C362.903 276.547 360.533 279.484 358.872 282.821C357.21 286.159 356.298 289.818 356.197 293.543L356.194 293.68L356.19 293.766L356.433 293.68L361.644 291.822C363.951 292.024 366.274 291.711 368.444 290.903C370.614 290.096 372.576 288.816 374.186 287.155C376.292 284.94 377.736 282.091 379.132 279.334C379.541 278.531 379.959 277.702 380.387 276.905C380.865 276.039 381.071 275.049 380.98 274.065C380.888 273.08 380.502 272.146 379.873 271.382Z" fill="#F2F2F2"/>
<path d="M246.809 89.2354C246.913 89.7761 247.136 90.2873 247.46 90.7331C247.784 91.1789 248.202 91.5484 248.684 91.8155C249.167 92.0827 249.703 92.241 250.253 92.2794C250.804 92.3177 251.356 92.2352 251.871 92.0375L267.444 110.111L269.416 103.439L253.977 86.9038C253.587 86.0623 252.9 85.3928 252.049 85.0222C251.197 84.6517 250.238 84.6057 249.355 84.8931C248.471 85.1805 247.724 85.7813 247.255 86.5816C246.785 87.382 246.627 88.3262 246.809 89.2354Z" fill="#FFB8B8"/>
<path d="M309.571 289.359H304.418L301.966 269.527H309.572L309.571 289.359Z" fill="#FFB6B6"/>
<path d="M309.433 287.68L303.931 285.447L303.773 285.382L300.735 287.68C299.02 287.68 297.375 288.36 296.162 289.57C294.949 290.78 294.267 292.421 294.267 294.133V294.342H310.884V287.68H309.433Z" fill="#2F2E41"/>
<path d="M346.335 289.359H341.182L338.73 269.527H346.336L346.335 289.359Z" fill="#FFB6B6"/>
<path d="M346.197 287.68L340.695 285.447L340.537 285.382L337.499 287.68C335.784 287.68 334.139 288.36 332.926 289.57C331.713 290.78 331.032 292.421 331.031 294.133V294.342H347.648V287.68H346.197Z" fill="#2F2E41"/>
<path d="M334.172 170.933C334.172 170.933 340.636 177.642 340.636 183.155C340.636 188.668 339.02 196.237 340.636 197.893C342.252 199.55 344.272 201.565 341.848 203.984C339.424 206.402 338.212 207.611 339.828 209.223C341.444 210.836 340.636 239.049 340.636 239.049L349.12 276.936H338.432L324.88 239.049L321.244 207.611L309.485 237.84L310.783 277.261L299.609 276.936L294.984 235.019C294.984 235.019 301.852 195.145 300.64 194.123C299.428 193.101 300.64 191.038 300.64 191.038L303.872 175.77L334.172 170.933Z" fill="#2F2E41"/>
<path d="M321.516 123.365C321.516 123.365 323.714 114.724 313.588 112.247C303.462 109.77 274.516 106.587 274.516 106.587L259.888 91.101L254.932 98.2824L271.33 118.613L310.185 126.575L321.516 123.365Z" fill="#3F3D56"/>
<path d="M257.341 97.7531C257.795 97.1659 258.151 96.5089 258.393 95.8079L260.491 90.6652L259.947 90.6425C259.193 90.5011 258.418 90.5201 257.672 90.6983C256.927 90.8766 256.227 91.21 255.62 91.6768C255.012 92.1436 254.511 92.7332 254.147 93.4069C253.784 94.0807 253.568 94.8234 253.513 95.5863C253.444 96.2463 253.563 96.9122 253.855 97.508C254.004 97.8034 254.222 98.0593 254.489 98.2549C254.756 98.4504 255.066 98.5801 255.393 98.6332C255.765 98.653 256.136 98.5834 256.475 98.4302C256.814 98.277 257.111 98.0448 257.341 97.7531Z" fill="#E6E6E6"/>
<path d="M301.809 177.829L300.597 186.594C300.597 186.594 303.021 189.191 304.233 188.867C305.445 188.542 309.889 186.652 309.889 186.652C309.889 186.652 315.141 189.516 317.969 189.841C320.797 190.165 335.745 188.217 336.149 187.244C336.553 186.27 341.249 182.457 341.249 182.457L339.381 171.336L301.809 177.829Z" fill="#E6E6E6"/>
<path d="M341.171 147.165C341.171 147.165 340.145 155.617 340.953 156.395C341.761 157.169 340.145 162.066 338.529 165.29C336.913 168.515 339.741 168.918 339.741 171.336C339.741 173.755 340.953 182.622 340.953 182.622C340.953 182.622 328.429 183.428 326.409 181.413C324.389 179.397 321.157 181.01 316.713 185.443C312.269 189.877 302.617 186.249 300.597 184.234C298.577 182.219 302.168 174.964 303.381 173.557C304.593 172.15 302.213 173.779 301.001 169.321C299.789 164.863 302.168 165.29 304.189 163.275C306.209 161.26 304.189 157.632 302.572 154.005C300.956 150.378 302.168 123.373 302.168 116.924C302.168 110.475 311.057 109.669 311.057 109.669L314.575 105.256L317.161 102.011L322.227 101.81L322.36 101.806L327.261 101.608L329.641 104.373L334.893 110.475L340.953 111.684C345.801 113.297 344.589 123.373 344.589 123.373L341.171 147.165Z" fill="#3F3D56"/>
<path d="M321.977 100.061C327.713 100.061 332.362 95.4226 332.362 89.7006C332.362 83.9786 327.713 79.34 321.977 79.34C316.242 79.34 311.592 83.9786 311.592 89.7006C311.592 95.4226 316.242 100.061 321.977 100.061Z" fill="#FFB6B6"/>
<path d="M334.018 86.2153C331.162 84.4677 331.528 79.8981 328.776 78.3025C327.408 77.5158 325.87 77.0705 324.292 77.0044C322.715 76.9383 321.145 77.2534 319.715 77.9228C317.777 77.0955 315.455 77.7558 313.904 79.2498C312.353 80.7438 311.514 82.9479 311.266 85.1645C311.087 87.3915 311.248 89.6327 311.742 91.8119C311.896 90.9364 312.05 90.0608 312.204 89.1853L320.39 87.4002C319.666 88.0498 318.941 88.6994 318.216 89.3491C321.924 90.1912 325.814 89.5842 329.087 87.6529C332.651 89.2469 332.005 92.8267 328.877 97.5776C330.089 99.5928 337.273 88.2066 334.018 86.2153Z" fill="#2F2E41"/>
<path d="M329.64 104.373C329.617 104.392 329.593 104.409 329.568 104.425C328.712 104.935 327.732 105.2 326.736 105.191C325.431 105.3 324.136 104.895 323.128 104.063C322.599 103.563 320.494 104.619 319.112 105.203C317.663 105.803 316.038 105.821 314.575 105.256L317.161 102.011L321.422 101.069H322.486L327.261 101.608L329.64 104.373Z" fill="#E6E6E6"/>
<path d="M399.37 294.837L254.812 295C254.729 295 254.647 294.984 254.57 294.953C254.493 294.922 254.423 294.876 254.364 294.817C254.305 294.759 254.258 294.689 254.225 294.613C254.193 294.536 254.176 294.454 254.176 294.371C254.175 294.288 254.191 294.206 254.223 294.129C254.254 294.052 254.3 293.983 254.359 293.924C254.417 293.865 254.487 293.818 254.564 293.786C254.64 293.753 254.723 293.737 254.806 293.736H254.812L399.37 293.573C399.537 293.574 399.698 293.641 399.816 293.759C399.934 293.878 400 294.038 400 294.205C400 294.372 399.934 294.532 399.816 294.651C399.698 294.769 399.537 294.836 399.37 294.837Z" fill="#CACACA"/>
<path d="M226.283 82.627H225.219V6.7139H267.06V7.7753H226.283V82.627Z" fill="#3F3D56"/>
<path d="M299.601 0H271.408C269.573 0 267.815 0.726872 266.518 2.02071C265.221 3.31454 264.492 5.06936 264.492 6.89912C264.492 8.72888 265.221 10.4837 266.518 11.7775C267.815 13.0714 269.573 13.7982 271.408 13.7982H299.601C301.435 13.7982 303.194 13.0714 304.491 11.7775C305.788 10.4837 306.516 8.72888 306.516 6.89912C306.516 5.06936 305.788 3.31454 304.491 2.02071C303.194 0.726872 301.435 0 299.601 0Z" fill="#1F94F3"/>
<path d="M225.133 89.5719C228.643 89.5719 231.488 86.7335 231.488 83.2322C231.488 79.7309 228.643 76.8925 225.133 76.8925C221.624 76.8925 218.779 79.7309 218.779 83.2322C218.779 86.7335 221.624 89.5719 225.133 89.5719Z" fill="#1F94F3"/>
<path d="M148.558 107.054L176.436 100.618L184.438 98.771C185.439 98.5399 185.023 97.0026 184.021 97.2337L156.144 103.67L148.142 105.517C147.141 105.748 147.557 107.285 148.558 107.054Z" fill="#F2F2F2"/>
<path d="M177.346 90.2935L192.269 97.1424C192.779 97.3181 193.256 97.5758 193.682 97.9051C194.094 98.3077 193.794 98.6948 193.458 99.0455C192.453 99.9812 191.392 100.855 190.281 101.661L183.923 106.818C183.125 107.466 184.251 108.595 185.042 107.954L190.579 103.462L193.348 101.216C194.133 100.58 195.088 99.9309 195.403 98.9173C196.065 96.7879 193.451 95.9412 191.999 95.2746L185.5 92.292L178.158 88.9228C177.233 88.4981 176.413 89.8656 177.346 90.2935Z" fill="#F2F2F2"/>
<path d="M383.292 142.431C380.633 140.633 377.403 139.965 374.246 139.738C370.658 139.543 367.061 139.548 363.473 139.751C359.746 139.898 356.026 140.167 352.314 140.558C348.608 140.949 344.917 141.462 341.241 142.096C337.95 142.608 334.694 143.319 331.49 144.226C328.457 145.063 325.601 146.439 323.057 148.288C320.825 149.963 319.108 152.229 318.102 154.829C317.115 157.267 316.947 159.959 317.624 162.501C317.985 163.736 318.602 164.88 319.436 165.861C320.401 166.936 321.543 167.838 322.813 168.528C325.451 170.031 328.439 170.934 330.825 172.857C331.454 173.361 332.027 173.929 332.535 174.554C332.88 175.037 333.357 175.412 333.909 175.632C334.432 175.815 334.998 175.838 335.534 175.701C336.071 175.563 336.554 175.27 336.924 174.858C337.402 174.206 337.8 173.499 338.111 172.753L339.369 170.331C339.454 170.119 339.559 169.916 339.684 169.725C339.778 169.613 339.61 169.728 339.642 169.698C339.659 169.682 339.696 169.682 339.716 169.669C339.82 169.618 339.929 169.576 340.041 169.545C341.205 169.102 342.374 168.673 343.549 168.258C347.884 166.717 352.271 165.296 356.728 164.146C359.021 163.532 361.347 163.046 363.694 162.691C366.735 162.259 369.821 162.31 372.875 162.014C376.164 161.696 379.557 161.032 382.377 159.226C384.709 157.812 386.505 155.667 387.485 153.127C387.909 151.916 388.055 150.625 387.911 149.35C387.544 146.466 385.656 144.03 383.292 142.431Z" fill="#E6E6E6"/>
<path d="M377.85 144.052C375.448 142.427 372.529 141.823 369.676 141.618C366.433 141.442 363.183 141.446 359.941 141.63C356.572 141.763 353.211 142.006 349.857 142.359C346.507 142.713 343.172 143.176 339.85 143.749C336.876 144.211 333.934 144.854 331.038 145.674C328.298 146.43 325.716 147.674 323.418 149.345C321.401 150.858 319.849 152.906 318.94 155.256C318.048 157.459 317.896 159.892 318.508 162.188C318.834 163.304 319.392 164.338 320.146 165.224C321.017 166.196 322.049 167.012 323.198 167.635C325.581 168.993 328.281 169.809 330.437 171.547C331.005 172.002 331.524 172.516 331.983 173.08C332.294 173.517 332.725 173.855 333.224 174.055C333.697 174.22 334.208 174.241 334.693 174.116C335.178 173.992 335.615 173.727 335.949 173.355C336.381 172.765 336.741 172.127 337.021 171.453L338.159 169.264C338.235 169.072 338.33 168.889 338.443 168.717C338.528 168.615 338.376 168.719 338.405 168.692C338.421 168.677 338.454 168.678 338.472 168.666C338.566 168.619 338.665 168.582 338.766 168.554C339.818 168.154 340.874 167.766 341.936 167.391C345.853 165.998 349.818 164.714 353.845 163.674C355.917 163.12 358.019 162.681 360.14 162.36C362.888 161.97 365.677 162.015 368.437 161.748C371.409 161.461 374.475 160.861 377.024 159.229C379.131 157.951 380.754 156.013 381.639 153.717C382.023 152.623 382.155 151.456 382.024 150.304C381.693 147.698 379.986 145.497 377.85 144.052Z" fill="white"/>
<path d="M372.818 146.987L333.666 154.191C333.554 154.212 333.439 154.211 333.328 154.188C333.216 154.165 333.11 154.12 333.016 154.056C332.922 153.992 332.841 153.91 332.779 153.815C332.716 153.72 332.674 153.613 332.653 153.501C332.632 153.389 332.633 153.275 332.656 153.163C332.68 153.052 332.725 152.947 332.79 152.853C332.854 152.759 332.937 152.679 333.032 152.617C333.128 152.555 333.235 152.513 333.347 152.492L333.352 152.491L372.504 145.287C372.616 145.266 372.731 145.268 372.842 145.292C372.953 145.315 373.059 145.361 373.153 145.425C373.246 145.489 373.326 145.572 373.388 145.667C373.45 145.762 373.492 145.868 373.513 145.98C373.534 146.092 373.532 146.206 373.508 146.317C373.485 146.428 373.439 146.533 373.375 146.627C373.31 146.72 373.228 146.8 373.132 146.862C373.037 146.924 372.93 146.966 372.818 146.987Z" fill="#E6E6E6"/>
<path d="M373.783 152.203L334.63 159.407C334.518 159.429 334.403 159.428 334.292 159.404C334.18 159.381 334.074 159.336 333.98 159.272C333.886 159.208 333.806 159.126 333.743 159.031C333.681 158.936 333.638 158.829 333.617 158.718C333.596 158.606 333.597 158.491 333.621 158.38C333.644 158.269 333.69 158.163 333.754 158.069C333.819 157.976 333.901 157.895 333.997 157.834C334.092 157.772 334.199 157.729 334.311 157.709L334.316 157.708L373.468 150.503C373.58 150.483 373.695 150.484 373.806 150.508C373.917 150.532 374.023 150.577 374.117 150.641C374.21 150.706 374.29 150.788 374.352 150.883C374.414 150.978 374.457 151.085 374.477 151.197C374.498 151.308 374.496 151.423 374.473 151.534C374.449 151.645 374.403 151.75 374.339 151.843C374.274 151.937 374.192 152.017 374.097 152.078C374.001 152.14 373.894 152.183 373.783 152.203Z" fill="#E6E6E6"/>
<path d="M340.158 163.784L335.595 164.624C335.369 164.664 335.137 164.614 334.948 164.484C334.76 164.354 334.631 164.155 334.589 163.93C334.548 163.705 334.597 163.473 334.727 163.285C334.856 163.096 335.056 162.966 335.281 162.924L339.843 162.085C340.069 162.044 340.302 162.094 340.49 162.224C340.679 162.354 340.808 162.553 340.85 162.778C340.892 163.003 340.842 163.235 340.712 163.424C340.582 163.613 340.383 163.742 340.158 163.784Z" fill="#E6E6E6"/>
<path d="M336.852 185.471C338.852 185.103 340.174 183.187 339.805 181.193C339.436 179.198 337.516 177.879 335.517 178.247C333.517 178.615 332.195 180.53 332.564 182.525C332.933 184.52 334.853 185.839 336.852 185.471Z" fill="#D1D3D4"/>
<path d="M134.233 105.409H100.791C99.2387 105.407 97.7504 104.791 96.6526 103.696C95.5549 102.601 94.9374 101.116 94.9355 99.5673V77.579C94.9374 76.0302 95.5549 74.5454 96.6526 73.4502C97.7504 72.3551 99.2387 71.739 100.791 71.7372H134.233C135.785 71.739 137.274 72.355 138.371 73.4502C139.469 74.5454 140.087 76.0302 140.088 77.579V99.5674C140.087 101.116 139.469 102.601 138.371 103.696C137.274 104.791 135.785 105.407 134.233 105.409Z" fill="#E6E6E6"/>
<path d="M130.558 104.225H101.453C100.102 104.223 98.8067 103.687 97.8513 102.734C96.896 101.781 96.3585 100.488 96.3569 99.1404V80.0036C96.3585 78.6556 96.896 77.3634 97.8513 76.4102C98.8067 75.4571 100.102 74.9209 101.453 74.9193H130.558C131.909 74.9209 133.204 75.4571 134.16 76.4102C135.115 77.3634 135.653 78.6556 135.654 80.0036V99.1404C135.653 100.488 135.115 101.781 134.16 102.734C133.204 103.687 131.909 104.223 130.558 104.225Z" fill="white"/>
<path d="M138.943 125.219H96.0331C95.768 125.219 95.5139 125.113 95.3266 124.926C95.1393 124.739 95.0342 124.485 95.0342 124.221C95.0342 123.956 95.1393 123.702 95.3266 123.515C95.5139 123.328 95.768 123.222 96.0331 123.222H138.943C139.208 123.222 139.462 123.328 139.65 123.515C139.837 123.702 139.942 123.956 139.942 124.221C139.942 124.485 139.837 124.739 139.65 124.926C139.462 125.113 139.208 125.219 138.943 125.219Z" fill="#E6E6E6"/>
<path d="M138.943 119.511H96.0331C95.768 119.511 95.5139 119.405 95.3266 119.218C95.1393 119.031 95.0342 118.777 95.0342 118.513C95.0342 118.248 95.1393 117.994 95.3266 117.807C95.5139 117.62 95.768 117.514 96.0331 117.514H138.943C139.208 117.514 139.462 117.62 139.65 117.807C139.837 117.994 139.942 118.248 139.942 118.513C139.942 118.777 139.837 119.031 139.65 119.218C139.462 119.405 139.208 119.511 138.943 119.511Z" fill="#E6E6E6"/>
<path d="M138.943 130.927H96.033C95.7674 130.927 95.5128 130.822 95.325 130.635C95.1372 130.447 95.0317 130.193 95.0317 129.928C95.0317 129.663 95.1372 129.409 95.325 129.222C95.5128 129.035 95.7674 128.93 96.033 128.93H138.943C139.209 128.93 139.463 129.035 139.651 129.222C139.839 129.409 139.944 129.663 139.944 129.928C139.944 130.193 139.839 130.447 139.651 130.635C139.463 130.822 139.209 130.927 138.943 130.927Z" fill="#E6E6E6"/>
<path d="M138.943 136.635H96.033C95.7674 136.635 95.5128 136.53 95.325 136.343C95.1372 136.155 95.0317 135.901 95.0317 135.636C95.0317 135.371 95.1372 135.117 95.325 134.93C95.5128 134.743 95.7674 134.637 96.033 134.637H138.943C139.209 134.637 139.463 134.743 139.651 134.93C139.839 135.117 139.944 135.371 139.944 135.636C139.944 135.901 139.839 136.155 139.651 136.343C139.463 136.53 139.209 136.635 138.943 136.635Z" fill="#E6E6E6"/>
<path d="M138.943 142.343H96.033C95.7674 142.343 95.5128 142.238 95.325 142.051C95.1372 141.863 95.0317 141.609 95.0317 141.344C95.0317 141.079 95.1372 140.825 95.325 140.638C95.5128 140.451 95.7674 140.345 96.033 140.345H138.943C139.209 140.345 139.463 140.451 139.651 140.638C139.839 140.825 139.944 141.079 139.944 141.344C139.944 141.609 139.839 141.863 139.651 142.051C139.463 142.238 139.209 142.343 138.943 142.343Z" fill="#E6E6E6"/>
<path d="M138.943 148.051H96.0331C95.768 148.05 95.5139 147.945 95.3266 147.758C95.1393 147.57 95.0342 147.317 95.0342 147.052C95.0342 146.788 95.1393 146.534 95.3266 146.347C95.5139 146.159 95.768 146.054 96.0331 146.053H138.943C139.208 146.054 139.462 146.159 139.65 146.347C139.837 146.534 139.942 146.788 139.942 147.052C139.942 147.317 139.837 147.57 139.65 147.758C139.462 147.945 139.208 148.05 138.943 148.051Z" fill="#E6E6E6"/>
<path d="M115.343 134.961H116.407V175.847H39.4565V174.786H115.343V134.961Z" fill="#3F3D56"/>
<path d="M6.91535 182.561H35.1087C36.9428 182.561 38.7017 181.834 39.9986 180.541C41.2955 179.247 42.0241 177.492 42.0241 175.662C42.0241 173.832 41.2955 172.078 39.9986 170.784C38.7017 169.49 36.9428 168.763 35.1087 168.763H6.91535C5.08128 168.763 3.32234 169.49 2.02546 170.784C0.728582 172.078 0 173.832 0 175.662C0 177.492 0.728582 179.247 2.02546 180.541C3.32234 181.834 5.08128 182.561 6.91535 182.561Z" fill="#1F94F3"/>
<path d="M116.615 138.041C120.125 138.041 122.97 135.203 122.97 131.702C122.97 128.2 120.125 125.362 116.615 125.362C113.106 125.362 110.261 128.2 110.261 131.702C110.261 135.203 113.106 138.041 116.615 138.041Z" fill="#1F94F3"/>
<path d="M149.461 133.463C158.79 135.442 156.417 135.828 165.747 137.806L173.78 139.509C174.785 139.723 175.061 138.154 174.055 137.941C164.726 135.963 167.099 135.577 157.769 133.598L149.735 131.895C148.73 131.682 148.455 133.25 149.461 133.463Z" fill="#F2F2F2"/>
<path d="M170.95 128.835L181.568 141.339C181.955 141.713 182.278 142.148 182.524 142.626C182.726 143.165 182.291 143.389 181.837 143.565C180.53 143.989 179.199 144.333 177.85 144.594L169.902 146.584C168.904 146.833 169.446 148.332 170.434 148.085L177.356 146.352L180.817 145.486C181.798 145.241 182.939 145.055 183.654 144.27C185.157 142.62 183.148 140.75 182.115 139.533L177.491 134.087L172.267 127.936C171.609 127.16 170.286 128.053 170.95 128.835Z" fill="#F2F2F2"/>
<path d="M204.616 183.344C212.777 183.344 219.394 176.743 219.394 168.601C219.394 160.459 212.777 153.858 204.616 153.858C196.455 153.858 189.838 160.459 189.838 168.601C189.838 176.743 196.455 183.344 204.616 183.344Z" fill="#E6E6E6"/>
<path d="M203.175 181.464C209.38 181.464 214.41 176.446 214.41 170.256C214.41 164.066 209.38 159.048 203.175 159.048C196.971 159.048 191.941 164.066 191.941 170.256C191.941 176.446 196.971 181.464 203.175 181.464Z" fill="white"/>
<path d="M201.16 177.929C200.904 177.93 200.653 177.87 200.424 177.756C200.196 177.642 199.998 177.477 199.845 177.273L195.813 171.911C195.684 171.738 195.589 171.542 195.535 171.334C195.482 171.125 195.47 170.908 195.5 170.695C195.531 170.482 195.603 170.276 195.713 170.091C195.823 169.906 195.968 169.744 196.141 169.615C196.313 169.485 196.51 169.391 196.719 169.338C196.928 169.284 197.146 169.272 197.359 169.302C197.573 169.333 197.779 169.405 197.964 169.514C198.15 169.624 198.313 169.769 198.442 169.941L198.443 169.943L201.081 173.451L207.855 163.314C207.975 163.134 208.129 162.98 208.308 162.86C208.487 162.74 208.689 162.656 208.901 162.614C209.112 162.571 209.331 162.571 209.542 162.613C209.754 162.654 209.956 162.737 210.136 162.857C210.316 162.976 210.47 163.13 210.59 163.309C210.71 163.488 210.794 163.689 210.836 163.901C210.878 164.112 210.878 164.33 210.836 164.541C210.794 164.753 210.711 164.954 210.591 165.133L202.527 177.199C202.382 177.417 202.185 177.598 201.955 177.725C201.725 177.852 201.468 177.922 201.205 177.929C201.19 177.929 201.175 177.929 201.16 177.929Z" fill="#E6E6E6"/>
<path d="M342.603 183.789C343.078 183.509 343.487 183.13 343.8 182.676C344.113 182.222 344.322 181.706 344.413 181.162C344.504 180.619 344.474 180.063 344.326 179.532C344.178 179.002 343.916 178.51 343.557 178.092L355.422 157.406L348.46 157.784L338.003 177.829C337.339 178.477 336.936 179.346 336.871 180.271C336.806 181.196 337.083 182.112 337.65 182.847C338.217 183.582 339.034 184.083 339.947 184.257C340.86 184.43 341.805 184.264 342.603 183.789Z" fill="#FFB8B8"/>
<path d="M329.238 111.281C329.238 111.281 341.805 107.251 345.037 116.924C348.269 126.597 359.134 152.796 359.134 152.796L347.461 176.576L342.209 170.933L347.822 154.408L331.662 130.225L329.238 111.281Z" fill="#3F3D56"/>
<path d="M347.861 174.147C347.483 173.509 347.003 172.936 346.441 172.451L342.431 168.601L342.208 169.097C341.797 169.743 341.527 170.468 341.417 171.225C341.306 171.982 341.357 172.754 341.567 173.49C341.776 174.226 342.139 174.909 342.631 175.495C343.124 176.082 343.735 176.557 344.425 176.891C345.014 177.2 345.678 177.337 346.341 177.286C346.671 177.258 346.99 177.151 347.271 176.976C347.552 176.801 347.788 176.562 347.959 176.278C348.115 175.941 348.187 175.572 348.17 175.201C348.154 174.83 348.048 174.469 347.861 174.147Z" fill="#E6E6E6"/>
<path d="M204.488 188.435H203.424V229.322H239.414V228.261H204.488V188.435Z" fill="#3F3D56"/>
<path d="M278.87 229.137C278.868 227.308 278.139 225.554 276.843 224.26C275.546 222.967 273.788 222.239 271.955 222.238H243.762C241.927 222.238 240.169 222.964 238.872 224.258C237.575 225.552 236.846 227.307 236.846 229.137C236.846 230.966 237.575 232.721 238.872 234.015C240.169 235.309 241.927 236.036 243.762 236.036H271.955C273.788 236.034 275.546 235.307 276.843 234.013C278.139 232.72 278.868 230.966 278.87 229.137Z" fill="#1F94F3"/>
<path d="M203.215 191.516C206.725 191.516 209.57 188.678 209.57 185.176C209.57 181.675 206.725 178.837 203.215 178.837C199.705 178.837 196.86 181.675 196.86 185.176C196.86 188.678 199.705 191.516 203.215 191.516Z" fill="#1F94F3"/>
</g>
<defs>
<clipPath id="clip0_42_1383">
<rect width="400" height="295" fill="white"/>
</clipPath>
</defs>
</svg>
