<svg width="419" height="295" viewBox="0 0 419 295" fill="none" xmlns="http://www.w3.org/2000/svg">
<g clip-path="url(#clip0_42_1481)">
<path d="M208.933 135.816C216.309 135.816 222.287 129.839 222.287 122.466C222.287 115.092 216.309 109.115 208.933 109.115C201.558 109.115 195.58 115.092 195.58 122.466C195.58 129.839 201.558 135.816 208.933 135.816Z" fill="#1F94F3"/>
<path d="M63.0679 17.5559V144.704C63.0716 147.793 64.3006 150.755 66.4853 152.939C68.67 155.123 71.632 156.352 74.7217 156.355H407.346C410.436 156.352 413.398 155.123 415.582 152.939C417.767 150.755 418.996 147.793 419 144.704V17.5559C418.996 14.4671 417.767 11.5058 415.582 9.32162C413.398 7.13746 410.436 5.90875 407.346 5.90503H74.7217C71.632 5.90875 68.67 7.13745 66.4853 9.32161C64.3006 11.5058 63.0716 14.4671 63.0679 17.5559ZM64.0951 17.5559C64.0951 14.7383 65.2147 12.0361 67.2075 10.0437C69.2004 8.0513 71.9033 6.93199 74.7217 6.93199H338.016C359.222 6.93199 379.559 15.3539 394.554 30.3449C409.549 45.3359 417.973 65.6681 417.973 86.8687V144.704C417.973 147.522 416.853 150.224 414.86 152.217C412.867 154.209 410.164 155.328 407.346 155.328H74.7217C71.9033 155.328 69.2004 154.209 67.2075 152.217C65.2147 150.224 64.0951 147.522 64.0951 144.704V17.5559Z" fill="#3F3D56"/>
<path d="M66.9034 285.435L74.3543 285.434L77.8988 256.702L66.9019 256.703L66.9034 285.435Z" fill="#FFB6B6"/>
<path d="M66.641 293.206L89.5534 293.205V292.915C89.5533 290.55 88.6136 288.283 86.9412 286.611C85.2687 284.939 83.0004 283.999 80.6353 283.999H80.6347L76.4495 280.825L68.6407 284L66.6406 284L66.641 293.206Z" fill="#2F2E41"/>
<path d="M34.401 285.435L41.8519 285.434L45.3963 256.702L34.3994 256.703L34.401 285.435Z" fill="#FFB6B6"/>
<path d="M34.139 293.206L57.0515 293.205V292.915C57.0513 290.55 56.1117 288.283 54.4392 286.611C52.7668 284.939 50.4985 283.999 48.1333 283.999H48.1328L43.9475 280.825L36.1388 284L34.1387 284L34.139 293.206Z" fill="#2F2E41"/>
<path d="M85.4552 128.88C85.4552 128.88 92.624 150.893 91.3008 153.79C89.9775 156.687 87.7199 154.43 89.9775 156.687C92.2351 158.944 94.2059 156.545 92.0917 160.378C89.9775 164.21 86.7746 195.764 85.3659 197.291C83.9573 198.818 82.0204 198.859 83.7414 200.344C85.4624 201.828 87.72 198.818 85.4623 201.828C83.2047 204.837 77.2141 274.261 77.2141 274.261H65.5113C65.5113 274.261 62.5966 270.902 64.2465 268.716C65.8964 266.53 64.1017 265.687 64.2465 264.228C64.3913 262.768 63.8426 259.621 63.7407 258.185C63.6388 256.749 61.661 222.541 66.4126 202.78L57.7482 165.153L47.2527 210.63C47.2527 210.63 52.0806 248.776 47.2527 261.038C47.2527 261.038 51.1451 264.279 49.4188 266.157C47.6925 268.034 46.1875 266.53 47.6925 268.034C49.1976 269.539 45.4349 274.806 45.4349 274.806L32.6418 274.053L25.4009 202.78C25.4009 202.78 24.1803 195.347 25.4009 194.073C26.6216 192.8 26.6216 197.314 26.6216 192.8V186.781C26.6216 186.781 27.3286 149.762 27.4229 147.582C27.5171 145.402 36.5476 129.602 36.5476 129.602L85.4552 128.88Z" fill="#2F2E41"/>
<path d="M85.3485 52.8528V96.2574C83.947 100.46 83.224 104.859 83.2068 109.29C83.253 116.668 84.876 125.172 84.8708 128.889C84.8925 129.382 84.8388 129.876 84.7116 130.353C77.5262 151.174 39.5037 132.253 36.0471 130.481C35.8827 130.399 35.7954 130.353 35.7954 130.353L36.5453 107.03L36.4169 100.324L35.5283 54.3213L36.3244 53.6846L43.2992 48.1236L43.9823 47.5793L46.0779 50.6345L64.7579 49.3508L71.8868 47.379L74.1107 48.2827L84.1364 52.3598L85.3485 52.8528Z" fill="#1F94F3"/>
<path d="M150.451 86.961L137.36 82.6341L133.845 89.7654L147.848 93.8478C148.305 94.5741 148.957 95.1583 149.728 95.5348C150.5 95.9113 151.361 96.0652 152.216 95.9791C153.07 95.893 153.883 95.5704 154.564 95.0476C155.245 94.5247 155.767 93.8223 156.07 93.0193C156.374 92.2163 156.447 91.3446 156.282 90.5022C156.117 89.6598 155.721 88.88 155.137 88.2506C154.553 87.6212 153.805 87.167 152.978 86.9392C152.15 86.7114 151.275 86.7189 150.451 86.961Z" fill="#FFB6B6"/>
<path d="M72.6679 48.6307L72.6137 48.8474C71.5907 52.9386 70.2848 64.6243 73.0833 67.7797C76.677 71.8367 105.706 84.2219 111.473 83.2129C115.946 82.4303 115.025 82.693 117.165 84.9188C119.305 87.1447 115.753 87.6645 120.527 88.054C125.3 88.4435 125.395 86.616 126.418 88.6427C127.44 90.6693 126.531 91.8906 129.779 91.7778C133.028 91.6651 133.842 92.2713 134.96 92.4705C136.078 92.6696 143.095 95.9951 143.095 95.9951C143.095 95.9951 145.91 87.966 149.453 84.9084C149.453 84.9084 141.327 83.9215 140.712 82.1979C140.097 80.4744 140.599 78.95 138.468 79.2619C136.337 79.5738 135.228 81.9124 135.522 78.9676C135.817 76.0227 120.465 70.2899 120.465 70.2899C111.2 61.1703 92.1652 54.8347 72.6679 48.6307Z" fill="#1F94F3"/>
<path d="M31.135 139.283L30.5412 125.511L22.625 124.753L23.771 139.29C23.254 139.976 22.9384 140.792 22.8598 141.646C22.7812 142.501 22.9427 143.361 23.326 144.129C23.7094 144.897 24.2995 145.543 25.0299 145.994C25.7603 146.445 26.6022 146.684 27.4608 146.683C28.3194 146.682 29.1607 146.442 29.8902 145.989C30.6197 145.536 31.2084 144.889 31.5901 144.12C31.9719 143.351 32.1315 142.491 32.0511 141.637C31.9707 140.782 31.6535 139.967 31.135 139.283Z" fill="#FFB6B6"/>
<path d="M39.4099 52.9811L39.1881 53.0072C37.1247 53.2506 35.1517 53.9931 33.4399 55.1705C31.7282 56.3479 30.3293 57.9246 29.3643 59.7642C26.8439 64.562 18.8701 97.0572 20.8225 101.517C22.6433 105.675 22.568 104.653 21.2448 107.442C19.9217 110.232 18.1763 107.096 19.5042 111.696C20.8322 116.297 22.5752 115.738 21.0422 117.412C19.5091 119.086 18.0444 118.669 19.3016 121.666C20.5588 124.663 20.2805 125.639 20.4904 126.755C20.7003 127.87 20.0778 135.609 20.0778 135.609C20.0778 135.609 28.5853 135.394 32.7011 137.623C32.7011 137.623 30.7433 129.676 32.1372 128.49C33.5311 127.304 35.135 127.233 34.0878 125.351C33.0405 123.47 30.4601 123.262 33.3188 122.493C36.1774 121.725 36.0969 105.341 36.0969 105.341L39.4099 52.9811Z" fill="#1F94F3"/>
<path d="M59.8068 35.4303C59.473 35.5073 59.1391 35.5741 58.8053 35.6254C57.7855 35.7929 56.7502 35.8463 55.7185 35.7846C53.0312 35.6403 50.4364 34.7548 48.2218 33.2261C46.0073 31.6974 44.2595 29.5853 43.1723 27.1241C42.0852 24.6629 41.7012 21.9488 42.0628 19.2827C42.4245 16.6166 43.5178 14.1028 45.2213 12.02C46.9249 9.93715 49.1722 8.36679 51.7141 7.48302C54.2559 6.59925 56.9929 6.43661 59.6216 7.01314C62.2502 7.58967 64.6678 8.88284 66.6062 10.7492C68.5445 12.6156 69.9279 14.9823 70.6029 17.5868C70.6337 17.7049 70.6646 17.8179 70.6902 17.936C71.5666 21.6987 70.9124 25.6553 68.8715 28.9359C66.8306 32.2165 63.5701 34.5525 59.8068 35.4303Z" fill="#FFB6B6"/>
<path d="M46.3595 33.7113C44.333 32.1258 44.1363 29.1036 42.407 27.1985C39.5157 24.0132 38.1573 20.5864 39.6719 16.8121C41.0115 13.4739 40.7268 9.37045 43.6119 7.2217C42.1949 6.70886 41.8614 5.64386 43.1117 5.6242C43.9549 5.61094 47.0981 7.22199 45.5857 5.21505C44.0732 3.2081 46.9362 4.00029 46.7468 3.17878C46.5574 2.35727 45.3432 1.90226 44.8076 2.55346C46.5174 0.550562 50.2513 0.977577 51.4645 3.31475C53.1686 0.761344 54.9776 -0.995638 57.5853 0.624748C60.1465 2.21621 60.1131 4.18349 62.8673 3.7107C64.1621 3.48845 64.2844 5.93407 65.1689 6.90517C66.0534 7.87627 67.3464 8.62784 68.6373 8.38395C69.9282 8.14005 70.9153 6.53172 70.192 5.43532L73.2345 12.3747L74.4607 10.871C76.4091 12.1404 75.7691 15.453 73.8079 16.7025C71.8466 17.952 68.1036 15.064 67.0393 17.1312C65.3615 20.3898 61.4257 18.7443 58.7227 16.4414C55.4449 13.6486 51.4886 22.1402 53.0675 26.1457C51.4292 24.5374 48.3986 25.8721 47.5499 28.005C46.7012 30.138 47.3235 32.541 47.9526 34.7487L46.3595 33.7113Z" fill="#2F2E41"/>
<path d="M248.803 81.6577H233.385C232.985 81.6572 232.602 81.4981 232.319 81.2153C232.036 80.9325 231.877 80.5491 231.876 80.1491V64.9236C231.877 64.5237 232.036 64.1402 232.319 63.8574C232.602 63.5746 232.985 63.4155 233.385 63.4151H248.803C249.203 63.4155 249.586 63.5746 249.869 63.8574C250.152 64.1402 250.311 64.5237 250.312 64.9236V80.1491C250.311 80.5491 250.152 80.9325 249.869 81.2153C249.586 81.4981 249.203 81.6572 248.803 81.6577Z" fill="#F2F2F2"/>
<path d="M251.369 82.9407H235.952C235.552 82.9402 235.168 82.7812 234.885 82.4984C234.602 82.2155 234.443 81.8321 234.443 81.4322V66.2066C234.443 65.8067 234.602 65.4232 234.885 65.1404C235.168 64.8576 235.552 64.6986 235.952 64.6981H251.369C251.769 64.6986 252.153 64.8576 252.436 65.1404C252.718 65.4232 252.878 65.8067 252.878 66.2066V81.4322C252.878 81.8321 252.718 82.2155 252.436 82.4983C252.153 82.7811 251.769 82.9402 251.369 82.9407Z" fill="#F2F2F2"/>
<path d="M233.708 63.8646C233.341 63.8646 232.99 64.0102 232.731 64.2694C232.471 64.5285 232.326 64.8801 232.326 65.2466V79.8261C232.326 80.1927 232.471 80.5442 232.731 80.8034C232.99 81.0626 233.341 81.2082 233.708 81.2082H243.135C244.919 81.2082 246.63 80.4997 247.892 79.2386C249.153 77.9775 249.862 76.2671 249.862 74.4836V65.2466C249.862 64.8801 249.716 64.5285 249.457 64.2694C249.198 64.0102 248.846 63.8646 248.479 63.8646H233.708Z" fill="white"/>
<path d="M245.223 68.2892H236.932C236.856 68.2892 236.783 68.259 236.73 68.2052C236.676 68.1514 236.646 68.0785 236.646 68.0024C236.646 67.9264 236.676 67.8534 236.73 67.7996C236.783 67.7458 236.856 67.7156 236.932 67.7156H245.223C245.299 67.7156 245.372 67.7458 245.426 67.7996C245.48 67.8534 245.51 67.9264 245.51 68.0024C245.51 68.0785 245.48 68.1514 245.426 68.2052C245.372 68.259 245.299 68.2892 245.223 68.2892Z" fill="#F2F2F2"/>
<path d="M245.223 74.4046H236.932C236.856 74.4046 236.783 74.3743 236.73 74.3206C236.676 74.2668 236.646 74.1938 236.646 74.1178C236.646 74.0417 236.676 73.9688 236.73 73.915C236.783 73.8612 236.856 73.831 236.932 73.831H245.223C245.299 73.831 245.372 73.8612 245.426 73.915C245.48 73.9688 245.51 74.0417 245.51 74.1178C245.51 74.1938 245.48 74.2668 245.426 74.3206C245.372 74.3743 245.299 74.4046 245.223 74.4046Z" fill="#F2F2F2"/>
<path d="M248.59 71.3488H233.566C233.49 71.3488 233.417 71.3186 233.363 71.2648C233.309 71.2111 233.279 71.1381 233.279 71.062C233.279 70.986 233.309 70.913 233.363 70.8593C233.417 70.8055 233.49 70.7753 233.566 70.7753H248.59C248.666 70.7753 248.739 70.8055 248.793 70.8593C248.846 70.913 248.877 70.986 248.877 71.062C248.877 71.1381 248.846 71.2111 248.793 71.2648C248.739 71.3186 248.666 71.3488 248.59 71.3488Z" fill="#F2F2F2"/>
<path d="M248.743 76.891H243.316C243.24 76.891 243.167 76.8608 243.113 76.807C243.059 76.7532 243.029 76.6803 243.029 76.6042C243.029 76.5282 243.059 76.4552 243.113 76.4015C243.167 76.3477 243.24 76.3174 243.316 76.3174H248.743C248.819 76.3174 248.892 76.3477 248.946 76.4015C249 76.4552 249.03 76.5282 249.03 76.6042C249.03 76.6803 249 76.7532 248.946 76.807C248.892 76.8608 248.819 76.891 248.743 76.891Z" fill="#F2F2F2"/>
<path d="M202.306 91.1887L202.106 91.0899C190.406 85.3074 177.75 85.3127 163.414 91.1057L163.03 90.1534C177.57 84.2782 190.439 84.2504 202.36 90.0704C219.136 83.6878 229.92 72.8703 234.417 57.9141L235.401 58.21C230.789 73.5498 219.724 84.619 202.515 91.11L202.306 91.1887Z" fill="#F2F2F2"/>
<path d="M251.11 91.1887L250.908 91.0944C239.41 85.7013 226.747 85.7063 212.194 91.1109L211.836 90.1482C226.574 84.6746 239.435 84.648 251.143 90.0704C269.926 82.5673 280.709 71.7686 283.197 57.971L284.208 58.153C281.644 72.3733 270.578 83.4606 251.316 91.1067L251.11 91.1887Z" fill="#F2F2F2"/>
<path d="M289.571 90.6423L289.444 90.5877C279.97 86.5159 267.644 86.5244 250.656 90.6153L250.415 89.6169C267.555 85.49 280.05 85.4799 289.722 89.5898C308.92 87.2428 319.386 76.7405 321.713 57.4869L322.733 57.6102C320.335 77.448 309.533 88.2477 289.708 90.6258L289.571 90.6423Z" fill="#F2F2F2"/>
<path d="M239.236 60.3342C241.506 60.3342 243.345 58.495 243.345 56.2263C243.345 53.9576 241.506 52.1185 239.236 52.1185C236.967 52.1185 235.127 53.9576 235.127 56.2263C235.127 58.495 236.967 60.3342 239.236 60.3342Z" fill="#1F94F3"/>
<path d="M285.461 60.3342C287.731 60.3342 289.57 58.495 289.57 56.2263C289.57 53.9576 287.731 52.1185 285.461 52.1185C283.192 52.1185 281.353 53.9576 281.353 56.2263C281.353 58.495 283.192 60.3342 285.461 60.3342Z" fill="#1F94F3"/>
<path d="M322.441 59.8207C324.711 59.8207 326.55 57.9815 326.55 55.7128C326.55 53.4441 324.711 51.605 322.441 51.605C320.172 51.605 318.333 53.4441 318.333 55.7128C318.333 57.9815 320.172 59.8207 322.441 59.8207Z" fill="#1F94F3"/>
<path d="M207.902 122.479H164.711C163.591 122.478 162.516 122.032 161.724 121.24C160.931 120.447 160.486 119.373 160.484 118.253V75.6C160.486 74.4796 160.931 73.4054 161.724 72.6132C162.516 71.8209 163.591 71.3753 164.711 71.374H207.902C209.022 71.3753 210.097 71.8209 210.889 72.6132C211.682 73.4054 212.128 74.4796 212.129 75.6V118.253C212.128 119.373 211.682 120.447 210.889 121.24C210.097 122.032 209.022 122.478 207.902 122.479Z" fill="#E6E6E6"/>
<path d="M200.711 118.884H157.521C156.4 118.883 155.326 118.438 154.533 117.645C153.741 116.853 153.295 115.779 153.294 114.659V72.0056C153.295 70.8852 153.741 69.8111 154.533 69.0188C155.326 68.2266 156.4 67.7809 157.521 67.7797H200.711C201.832 67.7809 202.907 68.2266 203.699 69.0188C204.491 69.8111 204.937 70.8852 204.938 72.0056V114.659C204.937 115.779 204.491 116.853 203.699 117.645C202.907 118.438 201.832 118.883 200.711 118.884Z" fill="#E6E6E6"/>
<path d="M165.564 69.0388C162.644 69.0388 159.843 70.1986 157.778 72.263C155.713 74.3275 154.553 77.1274 154.553 80.047V113.754C154.553 114.262 154.653 114.765 154.848 115.235C155.043 115.705 155.328 116.132 155.688 116.491C156.047 116.851 156.474 117.136 156.944 117.331C157.414 117.525 157.917 117.625 158.426 117.625H184.836C187.31 117.625 189.76 117.138 192.047 116.191C194.333 115.245 196.41 113.857 198.16 112.108C199.909 110.358 201.297 108.282 202.244 105.996C203.191 103.711 203.679 101.261 203.679 98.787V72.9105C203.679 71.8837 203.271 70.8989 202.544 70.1728C201.818 69.4467 200.833 69.0388 199.806 69.0388H165.564Z" fill="white"/>
<path d="M190.684 81.4339H167.458C167.245 81.4339 167.04 81.3493 166.89 81.1987C166.739 81.048 166.654 80.8436 166.654 80.6306C166.654 80.4175 166.739 80.2132 166.89 80.0625C167.04 79.9119 167.245 79.8272 167.458 79.8272H190.684C190.897 79.8272 191.101 79.9119 191.252 80.0625C191.403 80.2132 191.487 80.4175 191.487 80.6306C191.487 80.8436 191.403 81.048 191.252 81.1987C191.101 81.3493 190.897 81.4339 190.684 81.4339Z" fill="#E6E6E6"/>
<path d="M190.684 98.5656H167.458C167.352 98.5659 167.248 98.5453 167.15 98.505C167.052 98.4648 166.963 98.4056 166.888 98.331C166.814 98.2564 166.754 98.1677 166.714 98.0701C166.673 97.9725 166.652 97.8679 166.652 97.7622C166.652 97.6566 166.673 97.5519 166.714 97.4543C166.754 97.3567 166.814 97.2681 166.888 97.1934C166.963 97.1188 167.052 97.0597 167.15 97.0194C167.248 96.9792 167.352 96.9586 167.458 96.9589H190.684C190.896 96.9594 191.1 97.0443 191.251 97.1949C191.401 97.3455 191.485 97.5495 191.485 97.7622C191.485 97.9749 191.401 98.179 191.251 98.3296C191.1 98.4802 190.896 98.5651 190.684 98.5656Z" fill="#E6E6E6"/>
<path d="M200.115 90.0054H158.027C157.814 90.0054 157.609 89.9207 157.458 89.77C157.308 89.6194 157.223 89.4151 157.223 89.202C157.223 88.9889 157.308 88.7846 157.458 88.6339C157.609 88.4832 157.814 88.3986 158.027 88.3986H200.115C200.329 88.3986 200.533 88.4832 200.684 88.6339C200.834 88.7846 200.919 88.9889 200.919 89.202C200.919 89.4151 200.834 89.6194 200.684 89.77C200.533 89.9207 200.329 90.0054 200.115 90.0054Z" fill="#E6E6E6"/>
<path d="M200.545 105.531H185.34C185.235 105.531 185.13 105.511 185.033 105.47C184.935 105.43 184.847 105.371 184.772 105.296C184.697 105.221 184.638 105.133 184.598 105.035C184.557 104.938 184.537 104.833 184.537 104.728C184.537 104.622 184.557 104.518 184.598 104.42C184.638 104.323 184.697 104.234 184.772 104.16C184.847 104.085 184.935 104.026 185.033 103.986C185.13 103.945 185.235 103.925 185.34 103.925H200.545C200.758 103.925 200.962 104.009 201.113 104.16C201.264 104.311 201.348 104.515 201.348 104.728C201.348 104.941 201.264 105.145 201.113 105.296C200.962 105.447 200.758 105.531 200.545 105.531Z" fill="#E6E6E6"/>
<path d="M303.245 79.6037H287.828C287.428 79.6033 287.044 79.4442 286.761 79.1614C286.478 78.8786 286.319 78.4951 286.319 78.0952V62.8697C286.319 62.4697 286.478 62.0863 286.761 61.8035C287.044 61.5207 287.428 61.3616 287.828 61.3611H303.245C303.645 61.3616 304.029 61.5207 304.312 61.8035C304.594 62.0863 304.754 62.4697 304.754 62.8697V78.0952C304.754 78.4951 304.594 78.8786 304.312 79.1614C304.029 79.4442 303.645 79.6033 303.245 79.6037Z" fill="#F2F2F2"/>
<path d="M305.812 80.8868H290.395C289.995 80.8863 289.611 80.7273 289.328 80.4445C289.045 80.1617 288.886 79.7782 288.886 79.3783V64.1527C288.886 63.7528 289.045 63.3694 289.328 63.0865C289.611 62.8037 289.995 62.6447 290.395 62.6442H305.812C306.212 62.6447 306.596 62.8037 306.878 63.0865C307.161 63.3694 307.32 63.7528 307.321 64.1527V79.3783C307.32 79.7782 307.161 80.1616 306.878 80.4444C306.596 80.7272 306.212 80.8863 305.812 80.8868Z" fill="#F2F2F2"/>
<path d="M288.151 61.8106C287.784 61.8106 287.433 61.9562 287.173 62.2154C286.914 62.4746 286.769 62.8261 286.769 63.1927V77.7722C286.769 78.1387 286.914 78.4903 287.173 78.7495C287.433 79.0086 287.784 79.1542 288.151 79.1542H297.578C299.362 79.1542 301.073 78.4458 302.334 77.1847C303.596 75.9236 304.305 74.2132 304.305 72.4297V63.1927C304.305 62.8261 304.159 62.4746 303.9 62.2154C303.64 61.9562 303.289 61.8106 302.922 61.8106H288.151Z" fill="white"/>
<path d="M299.666 66.2352H291.375C291.299 66.2352 291.226 66.205 291.172 66.1513C291.119 66.0975 291.088 66.0245 291.088 65.9485C291.088 65.8724 291.119 65.7995 291.172 65.7457C291.226 65.6919 291.299 65.6617 291.375 65.6617H299.666C299.742 65.6617 299.815 65.6919 299.869 65.7457C299.923 65.7995 299.953 65.8724 299.953 65.9485C299.953 66.0245 299.923 66.0975 299.869 66.1513C299.815 66.205 299.742 66.2352 299.666 66.2352Z" fill="#F2F2F2"/>
<path d="M299.666 72.3506H291.375C291.299 72.3506 291.226 72.3204 291.172 72.2666C291.119 72.2128 291.088 72.1399 291.088 72.0638C291.088 71.9878 291.119 71.9148 291.172 71.861C291.226 71.8072 291.299 71.777 291.375 71.777H299.666C299.742 71.777 299.815 71.8072 299.869 71.861C299.923 71.9148 299.953 71.9878 299.953 72.0638C299.953 72.1399 299.923 72.2128 299.869 72.2666C299.815 72.3204 299.742 72.3506 299.666 72.3506Z" fill="#F2F2F2"/>
<path d="M303.033 69.2949H288.009C287.932 69.2949 287.859 69.2647 287.806 69.2109C287.752 69.1572 287.722 69.0842 287.722 69.0082C287.722 68.9321 287.752 68.8591 287.806 68.8054C287.859 68.7516 287.932 68.7214 288.009 68.7214H303.033C303.109 68.7214 303.182 68.7516 303.236 68.8054C303.289 68.8591 303.32 68.9321 303.32 69.0082C303.32 69.0842 303.289 69.1572 303.236 69.2109C303.182 69.2647 303.109 69.2949 303.033 69.2949Z" fill="#F2F2F2"/>
<path d="M303.186 74.8371H297.759C297.682 74.8371 297.609 74.8069 297.556 74.7531C297.502 74.6993 297.472 74.6264 297.472 74.5503C297.472 74.4743 297.502 74.4013 297.556 74.3476C297.609 74.2938 297.682 74.2635 297.759 74.2635H303.186C303.262 74.2635 303.335 74.2938 303.389 74.3476C303.443 74.4013 303.473 74.4743 303.473 74.5503C303.473 74.6264 303.443 74.6993 303.389 74.7531C303.335 74.8069 303.262 74.8371 303.186 74.8371Z" fill="#F2F2F2"/>
<path d="M126.507 286.1C126.269 286.111 126.032 286.048 125.83 285.92C125.629 285.793 125.471 285.606 125.379 285.385C125.286 285.165 125.264 284.921 125.315 284.688C125.366 284.455 125.487 284.242 125.663 284.08L125.743 283.763C125.732 283.737 125.721 283.712 125.711 283.686C125.47 283.119 125.067 282.634 124.552 282.295C124.038 281.955 123.434 281.775 122.817 281.777C122.2 281.78 121.598 281.964 121.085 282.308C120.573 282.651 120.173 283.138 119.937 283.708C118.993 285.982 117.791 288.259 117.495 290.664C117.364 291.726 117.419 292.803 117.657 293.847C115.439 289.01 114.287 283.753 114.28 278.432C114.28 277.097 114.354 275.763 114.502 274.436C114.625 273.348 114.795 272.268 115.013 271.196C116.202 265.377 118.754 259.924 122.461 255.283C124.254 254.304 125.705 252.8 126.617 250.971C126.948 250.314 127.181 249.613 127.311 248.889C127.108 248.915 126.548 245.834 126.7 245.645C126.418 245.217 125.913 245.005 125.605 244.587C124.074 242.511 121.963 242.873 120.862 245.695C118.508 246.882 118.485 248.852 119.929 250.746C120.848 251.951 120.974 253.582 121.781 254.872C121.698 254.978 121.611 255.081 121.528 255.187C120.012 257.136 118.691 259.229 117.583 261.435C117.853 258.963 117.531 256.462 116.645 254.139C115.747 251.973 114.064 250.149 112.582 248.277C112.19 247.774 111.658 247.399 111.053 247.199C110.447 246.998 109.796 246.981 109.181 247.151C108.567 247.32 108.016 247.668 107.599 248.151C107.182 248.633 106.917 249.228 106.838 249.861C106.835 249.888 106.832 249.916 106.829 249.943C107.049 250.068 107.265 250.199 107.476 250.339C107.741 250.516 107.946 250.768 108.065 251.064C108.183 251.359 108.21 251.684 108.141 251.995C108.072 252.306 107.911 252.589 107.678 252.806C107.446 253.024 107.153 253.167 106.838 253.215L106.806 253.22C106.884 254.013 107.023 254.799 107.221 255.572C105.319 262.922 109.424 265.6 115.285 265.72C115.415 265.786 115.541 265.853 115.67 265.916C114.557 269.069 113.859 272.353 113.593 275.686C113.443 277.653 113.452 279.628 113.62 281.593L113.61 281.523C113.185 279.338 112.019 277.367 110.309 275.942C107.769 273.855 104.18 273.087 101.44 271.41C101.149 271.223 100.81 271.124 100.464 271.123C100.118 271.122 99.7788 271.22 99.4867 271.406C99.1946 271.591 98.9616 271.856 98.8152 272.17C98.6689 272.483 98.6153 272.832 98.6607 273.175L98.672 273.249C99.0805 273.415 99.4782 273.606 99.8629 273.822C100.083 273.946 100.298 274.078 100.509 274.218C100.774 274.395 100.979 274.647 101.098 274.943C101.217 275.238 101.243 275.563 101.175 275.874C101.106 276.185 100.944 276.468 100.712 276.685C100.48 276.903 100.187 277.046 99.8719 277.094L99.8396 277.099C99.8164 277.102 99.7965 277.106 99.7733 277.109C100.471 278.775 101.451 280.309 102.669 281.643C103.858 288.06 108.964 288.669 114.426 286.8H114.429C115.029 289.403 115.897 291.937 117.02 294.361H126.276C126.309 294.259 126.339 294.152 126.368 294.05C125.512 294.104 124.652 294.052 123.807 293.897C124.494 293.055 125.181 292.206 125.867 291.363C125.883 291.348 125.897 291.331 125.911 291.314C126.259 290.882 126.611 290.455 126.959 290.023L126.959 290.023C126.978 288.701 126.826 287.383 126.507 286.1Z" fill="#F2F2F2"/>
<path d="M2.70665e-06 294.389C-0.000236675 294.469 0.0154047 294.549 0.0460377 294.623C0.0766706 294.697 0.121686 294.765 0.178492 294.822C0.235298 294.878 0.302778 294.923 0.377044 294.954C0.45131 294.985 0.530898 295 0.611232 295H130.704C130.866 295 131.021 294.936 131.136 294.821C131.25 294.707 131.315 294.551 131.315 294.389C131.315 294.227 131.25 294.072 131.136 293.957C131.021 293.842 130.866 293.778 130.704 293.778H0.611232C0.530899 293.778 0.451309 293.793 0.377044 293.824C0.302779 293.855 0.235306 293.9 0.1785 293.956C0.121694 294.013 0.0766794 294.081 0.0460455 294.155C0.0154116 294.229 -0.000233948 294.309 2.70665e-06 294.389Z" fill="#CCCCCC"/>
<path d="M55.7183 35.7846L58.8043 35.6254C57.7847 35.7929 56.7497 35.8463 55.7183 35.7846Z" fill="#F2F2F2"/>
<path d="M74.1108 48.2828L73.6023 48.9298L72.2361 50.6653L60.4385 65.6642L43.2993 48.1236L43.9824 47.5793L47.6188 39.8514L66.2988 38.5677L71.8869 47.379L74.1108 48.2828Z" fill="#3F3D56"/>
</g>
<defs>
<clipPath id="clip0_42_1481">
<rect width="419" height="295" fill="white"/>
</clipPath>
</defs>
</svg>
