<svg width="470" height="295" viewBox="0 0 470 295" fill="none" xmlns="http://www.w3.org/2000/svg">
<g clip-path="url(#clip0_42_1560)">
<path d="M113.266 295C175.821 295 226.532 292.636 226.532 289.721C226.532 286.805 175.821 284.442 113.266 284.442C50.711 284.442 0 286.805 0 289.721C0 292.636 50.711 295 113.266 295Z" fill="#E6E6E6"/>
<path d="M233.05 0C231.874 0.00125628 230.746 0.469516 229.914 1.30203C229.082 2.13454 228.615 3.2633 228.613 4.44065V169.067C228.615 170.245 229.082 171.374 229.914 172.206C230.746 173.039 231.874 173.507 233.05 173.508H465.563C466.739 173.507 467.867 173.039 468.699 172.206C469.531 171.374 469.999 170.245 470 169.067V4.44065C469.999 3.2633 469.531 2.13454 468.699 1.30203C467.867 0.469516 466.739 0.00125488 465.563 0H233.05Z" fill="#E6E6E6"/>
<path d="M233.605 168.512H465.008V4.99597H233.605V168.512Z" fill="white"/>
<path d="M167.735 209.265C166.315 209.265 164.937 209.754 163.833 210.648C162.729 211.543 161.965 212.79 161.669 214.18H170.32V235.91H161.669C161.988 237.41 162.851 238.739 164.091 239.64C165.332 240.541 166.861 240.951 168.386 240.79C169.91 240.63 171.321 239.91 172.346 238.77C173.372 237.63 173.939 236.15 173.939 234.616V215.474C173.939 214.658 173.778 213.851 173.467 213.098C173.155 212.344 172.698 211.66 172.122 211.084C171.546 210.507 170.862 210.05 170.109 209.738C169.357 209.426 168.55 209.265 167.735 209.265Z" fill="#3F3D56"/>
<path d="M97.9859 171.239C95.0289 171.242 92.1939 172.419 90.103 174.512C88.012 176.604 86.8359 179.442 86.8325 182.401V268.206C86.8359 271.165 88.012 274.003 90.103 276.095C92.1939 278.188 95.0289 279.365 97.9859 279.368H152.188C155.145 279.365 157.98 278.188 160.071 276.095C162.162 274.003 163.338 271.165 163.342 268.206V182.401C163.338 179.442 162.162 176.604 160.071 174.512C157.98 172.419 155.145 171.242 152.188 171.239H97.9859Z" fill="#3F3D56"/>
<path d="M92.2607 289.457C95.4013 289.457 97.9472 286.909 97.9472 283.766C97.9472 280.623 95.4013 278.075 92.2607 278.075C89.1201 278.075 86.5742 280.623 86.5742 283.766C86.5742 286.909 89.1201 289.457 92.2607 289.457Z" fill="#3F3D56"/>
<path d="M155.846 289.457C158.986 289.457 161.532 286.909 161.532 283.766C161.532 280.623 158.986 278.075 155.846 278.075C152.705 278.075 150.159 280.623 150.159 283.766C150.159 286.909 152.705 289.457 155.846 289.457Z" fill="#3F3D56"/>
<path d="M99.4982 170.463H96.3965V279.627H99.4982V170.463Z" fill="#4D4D4D"/>
<path d="M108.286 170.463H105.185V279.627H108.286V170.463Z" fill="#4D4D4D"/>
<path d="M117.074 170.463H113.973V279.627H117.074V170.463Z" fill="#4D4D4D"/>
<path d="M125.862 170.463H122.761V279.627H125.862V170.463Z" fill="#4D4D4D"/>
<path d="M134.651 170.463H131.549V279.627H134.651V170.463Z" fill="#4D4D4D"/>
<path d="M143.439 170.463H140.337V279.627H143.439V170.463Z" fill="#4D4D4D"/>
<path d="M152.227 170.463H149.125V279.627H152.227V170.463Z" fill="#4D4D4D"/>
<path d="M151.394 162.185C153.421 158.735 154.489 154.805 154.489 150.803H99.5627C99.5623 154.805 100.631 158.735 102.658 162.185H91.4854C91.4854 168.185 96.5483 173.049 102.794 173.049H116.633C118.958 173.738 121.37 174.087 123.795 174.084H130.257C132.682 174.087 135.094 173.738 137.419 173.049H151.258C157.503 173.049 162.566 168.185 162.566 162.185H151.394Z" fill="#2F2E41"/>
<path d="M110.821 240.566C110.923 241.669 110.689 242.777 110.149 243.744C109.609 244.711 108.789 245.492 107.797 245.983L107.769 245.998C102.599 248.949 98.3686 251.266 93.3477 250.84C92.8418 250.795 92.353 250.634 91.9195 250.369C91.486 250.104 91.1195 249.742 90.8484 249.312C90.5774 248.883 90.4092 248.396 90.3569 247.89C90.3046 247.385 90.3696 246.874 90.547 246.397L97.6887 232.805C101.837 227.968 104.761 227.963 109.837 232.029L110.821 240.566Z" fill="#2F2E41"/>
<path d="M140.387 240.566C140.285 241.669 140.519 242.777 141.059 243.744C141.599 244.711 142.419 245.492 143.411 245.983L143.439 245.998C148.609 248.949 152.84 251.266 157.861 250.84C158.367 250.795 158.855 250.634 159.289 250.369C159.722 250.104 160.089 249.742 160.36 249.312C160.631 248.883 160.799 248.396 160.852 247.89C160.904 247.385 160.839 246.874 160.661 246.397L153.52 232.805C149.371 227.968 146.448 227.963 141.371 232.029L140.387 240.566Z" fill="#2F2E41"/>
<path d="M119.631 80.4409H99.7587C98.8584 80.4424 97.9817 80.1535 97.2583 79.6172C96.535 79.0808 96.0035 78.3255 95.7428 77.4632C95.1309 75.4221 94.3409 73.4418 94.3283 71.6457C94.2795 64.6749 94.6257 60.2379 97.6885 57.4181C107.893 49.6739 115.288 51.0984 122.244 59.2289C124.686 63.7711 124.059 70.5503 122.738 77.8354C122.607 78.5652 122.225 79.2258 121.657 79.702C121.089 80.1783 120.372 80.4398 119.631 80.4409Z" fill="#2F2E41"/>
<path d="M109.32 89.2361C116.743 89.2361 122.761 83.2136 122.761 75.7845C122.761 68.3555 116.743 62.333 109.32 62.333C101.897 62.333 95.8794 68.3555 95.8794 75.7845C95.8794 83.2136 101.897 89.2361 109.32 89.2361Z" fill="#A0616A"/>
<path d="M119.659 102.688L101.049 103.205L99.498 83.0278L117.591 82.5105L119.659 102.688Z" fill="#A0616A"/>
<path d="M151.193 150.803L138.352 156.752C136.2 161.86 133.234 161.713 129.481 156.494C125.9 162.771 118.186 159.009 114.417 156.268C111.988 155.028 109.301 154.38 106.574 154.374C103.847 154.368 101.157 155.006 98.7227 156.235L85.0234 95.4446C89.246 91.8113 94.8728 89.5292 100.274 87.9427L110.871 101.136L118.108 88.2014C123.139 84.1538 130.204 84.1464 137.753 85.0972L142.16 108.679C139.253 127.281 143.624 136.611 151.193 150.803Z" fill="#1F94F3"/>
<path d="M108.803 230.995L97.947 232.029L81.8648 160.895C81.499 159.247 81.5076 157.539 81.8899 155.895C82.2721 154.252 83.0183 152.715 84.0734 151.399C85.1284 150.082 86.4654 149.02 87.9856 148.29C89.5058 147.56 91.1704 147.181 92.8565 147.181C94.4597 147.181 96.0444 147.524 97.5046 148.186C98.9648 148.848 100.267 149.815 101.324 151.022C102.38 152.228 103.168 153.647 103.633 155.182C104.097 156.718 104.229 158.335 104.019 159.926L102.083 174.602L108.803 230.995Z" fill="#2F2E41"/>
<path d="M141.371 232.029L152.227 231.512L168.309 160.895C168.675 159.247 168.667 157.539 168.284 155.895C167.902 154.252 167.156 152.715 166.101 151.399C165.046 150.082 163.709 149.02 162.189 148.29C160.668 147.56 159.004 147.181 157.318 147.181C155.714 147.181 154.13 147.524 152.67 148.186C151.209 148.848 149.907 149.815 148.85 151.022C147.794 152.228 147.007 153.647 146.542 155.182C146.077 156.718 145.945 158.335 146.155 159.926L148.092 174.602L141.371 232.029Z" fill="#2F2E41"/>
<path d="M176.657 129.942L167.477 153.648C162.458 149.808 158.412 149.284 152.845 151.32C151.305 151.106 150.159 147.72 150.159 146.164C150.159 145.362 150.468 144.591 151.022 144.011C151.575 143.432 152.331 143.088 153.131 143.051L161.532 142.669C163.069 138.642 164.003 134.409 164.304 130.108C168.335 128.963 172.597 128.906 176.657 129.942Z" fill="#A0616A"/>
<path d="M177.558 130.625L179.796 122.268C180.773 119.212 180.677 115.913 179.524 112.918C178.37 109.924 176.229 107.414 173.454 105.805L137.752 85.0972L137.235 107.861L163.6 119.243C164.328 123.116 164.565 127.066 164.304 130.998C168.417 129.775 173.435 129.516 177.558 130.625Z" fill="#1F94F3"/>
<path d="M122.502 68.2828L108.545 70.8696C107.255 70.8696 105.978 70.6154 104.786 70.1214C103.594 69.6274 102.512 68.9033 101.599 67.9905C100.687 67.0777 99.9639 65.9941 99.4703 64.8014C98.9767 63.6088 98.7227 62.3306 98.7227 61.0397H123.019L122.502 68.2828Z" fill="#2F2E41"/>
<path d="M96.913 73.4564C97.6267 73.4564 98.2054 72.2982 98.2054 70.8695C98.2054 69.4409 97.6267 68.2827 96.913 68.2827C96.1992 68.2827 95.6206 69.4409 95.6206 70.8695C95.6206 72.2982 96.1992 73.4564 96.913 73.4564Z" fill="#A0616A"/>
<path d="M139.562 112.043H139.412V107.927C139.412 107.614 139.35 107.304 139.23 107.015C139.111 106.726 138.935 106.463 138.714 106.242C138.493 106.021 138.231 105.846 137.942 105.726C137.653 105.606 137.344 105.545 137.031 105.545H128.318C128.006 105.545 127.696 105.606 127.407 105.726C127.119 105.846 126.856 106.021 126.635 106.242C126.414 106.463 126.239 106.726 126.119 107.015C126 107.304 125.938 107.614 125.938 107.927V130.507C125.938 130.82 126 131.129 126.119 131.418C126.239 131.707 126.414 131.97 126.635 132.191C126.856 132.412 127.119 132.588 127.407 132.708C127.696 132.827 128.006 132.889 128.318 132.889H137.031C137.344 132.889 137.653 132.827 137.942 132.708C138.231 132.588 138.493 132.412 138.714 132.191C138.935 131.97 139.111 131.707 139.23 131.418C139.35 131.129 139.412 130.82 139.412 130.507V114.972H139.562V112.043Z" fill="#E6E6E6"/>
<path d="M132.325 114.328C133.467 114.328 134.392 113.402 134.392 112.259C134.392 111.116 133.467 110.189 132.325 110.189C131.183 110.189 130.257 111.116 130.257 112.259C130.257 113.402 131.183 114.328 132.325 114.328Z" fill="#1F94F3"/>
<path d="M130.515 131.143C119.882 139.497 109.22 146.45 101.308 147.44L100.015 133.212C107.615 132.116 117.775 127.105 128.448 121.313L133.667 118.596C134.509 118.158 135.446 117.936 136.395 117.949C137.343 117.962 138.274 118.211 139.103 118.672C139.932 119.133 140.634 119.793 141.146 120.592C141.658 121.391 141.965 122.305 142.037 123.252C142.141 124.595 141.769 125.931 140.988 127.027C140.207 128.124 139.066 128.91 137.764 129.25L130.515 131.143Z" fill="#A0616A"/>
<path d="M110.354 147.698L89.1588 148.216C82.027 134.214 79.4388 119.272 80.8875 103.495C80.8875 101.81 81.2959 100.149 82.0778 98.6554C82.8596 97.1621 83.9915 95.8807 85.3765 94.9211L87.6079 93.375C97.1489 107.55 103.067 120.713 101.049 131.66L107.252 131.143C103.235 136.569 105.095 142.103 110.354 147.698Z" fill="#1F94F3"/>
<path d="M18.6455 208.799C18.6455 208.799 19.7406 185.227 42.1893 187.967L18.6455 208.799Z" fill="#E6E6E6"/>
<path d="M18.3816 288.671C18.3535 288.424 15.7039 263.862 26.4325 250.864C30.392 246.066 35.6977 243.379 42.2017 242.879L42.2733 243.805C36.0307 244.285 30.9421 246.859 27.1493 251.453C16.6717 264.146 19.276 288.323 19.3032 288.566L18.3816 288.671Z" fill="#E6E6E6"/>
<path d="M18.4092 184.698H17.4746V287.968H18.4092V184.698Z" fill="#E6E6E6"/>
<path d="M18.0722 185.88C22.3057 185.88 25.7376 182.445 25.7376 178.208C25.7376 173.971 22.3057 170.536 18.0722 170.536C13.8387 170.536 10.4067 173.971 10.4067 178.208C10.4067 182.445 13.8387 185.88 18.0722 185.88Z" fill="#1F94F3"/>
<path d="M42.2376 250.965C46.4443 250.965 49.8545 247.552 49.8545 243.342C49.8545 239.132 46.4443 235.719 42.2376 235.719C38.0308 235.719 34.6206 239.132 34.6206 243.342C34.6206 247.552 38.0308 250.965 42.2376 250.965Z" fill="#E6E6E6"/>
<path d="M265.934 37.5878C263.416 37.5878 260.955 38.335 258.861 39.7349C256.768 41.1349 255.136 43.1247 254.173 45.4527C253.209 47.7808 252.957 50.3425 253.448 52.8139C253.939 55.2853 255.152 57.5555 256.932 59.3373C258.713 61.1191 260.981 62.3325 263.45 62.8241C265.92 63.3157 268.48 63.0634 270.806 62.099C273.132 61.1347 275.12 59.5018 276.519 57.4066C277.918 55.3114 278.664 52.8481 278.664 50.3283C278.664 48.6552 278.335 46.9985 277.695 45.4527C277.056 43.907 276.118 42.5024 274.936 41.3194C273.754 40.1363 272.35 39.1978 270.806 38.5576C269.261 37.9173 267.606 37.5878 265.934 37.5878ZM271.798 51.5701C271.667 51.5701 271.23 51.5663 271.103 51.5585L268.594 51.4927C268.581 51.4924 268.568 51.4955 268.557 51.5016C268.545 51.5077 268.535 51.5166 268.528 51.5276L264.763 57.1602C264.707 57.2482 264.63 57.3205 264.539 57.3706C264.448 57.4206 264.345 57.4468 264.241 57.4465H263.325C263.109 57.4465 263.035 57.2299 263.113 57.0287L265.049 51.5005C265.054 51.489 265.055 51.4766 265.054 51.4644C265.053 51.4522 265.048 51.4404 265.042 51.4302C265.035 51.4199 265.026 51.4115 265.015 51.4055C265.004 51.3996 264.992 51.3963 264.98 51.396L260.275 51.2916C260.227 51.2905 260.178 51.3007 260.134 51.3216C260.09 51.3424 260.051 51.3731 260.02 51.4115L258.563 53.1794C258.505 53.2528 258.431 53.3121 258.346 53.3529C258.262 53.3938 258.17 53.4151 258.076 53.4154H257.43C257.406 53.4157 257.381 53.41 257.359 53.3988C257.337 53.3876 257.318 53.3713 257.304 53.3511C257.289 53.331 257.28 53.3077 257.276 53.2832C257.273 53.2587 257.275 53.2338 257.283 53.2104L258.053 50.5527C258.111 50.4047 258.111 50.2403 258.053 50.0923L257.283 47.4346C257.275 47.4112 257.273 47.3862 257.276 47.3617C257.28 47.3372 257.289 47.314 257.304 47.2938C257.318 47.2737 257.337 47.2574 257.359 47.2462C257.381 47.235 257.406 47.2293 257.43 47.2296H258.08C258.174 47.229 258.266 47.25 258.351 47.2909C258.435 47.3318 258.509 47.3915 258.567 47.4655L259.997 49.2064C260.027 49.2451 260.066 49.2761 260.11 49.2969C260.155 49.3177 260.203 49.3278 260.252 49.3263L264.984 49.2567C264.996 49.2566 265.008 49.2535 265.019 49.2476C265.03 49.2418 265.039 49.2333 265.046 49.223C265.053 49.2127 265.057 49.2008 265.058 49.1885C265.06 49.1761 265.058 49.1637 265.053 49.1522L263.117 43.6279C263.039 43.4267 263.113 43.2101 263.329 43.2101H264.245C264.349 43.2103 264.452 43.2366 264.543 43.2866C264.634 43.3366 264.711 43.4087 264.767 43.4963L268.528 49.1329C268.535 49.1442 268.545 49.1534 268.556 49.1595C268.568 49.1656 268.581 49.1685 268.594 49.1677L271.103 49.1019C271.226 49.0942 271.667 49.0903 271.798 49.0903C273.515 49.0903 274.593 49.6474 274.593 50.3321C274.593 51.0169 273.511 51.5701 271.798 51.5701Z" fill="#3F3D56"/>
<path d="M298.24 49.7297H295.075V50.7856H298.24V49.7297Z" fill="#3F3D56"/>
<path d="M409.679 50.7856H403.488V49.7297H409.679V50.7856ZM397.297 50.7856H391.105V49.7297H397.297L397.297 50.7856ZM384.915 50.7856H378.723V49.7297H384.915V50.7856ZM372.533 50.7856H366.341V49.7297H372.533V50.7856ZM360.15 50.7856H353.959V49.7297H360.15V50.7856ZM347.768 50.7856H341.577V49.7297H347.768V50.7856ZM335.386 50.7856H329.195V49.7297H335.386V50.7856ZM323.004 50.7856H316.813V49.7297H323.004V50.7856ZM310.622 50.7856H304.431V49.7297H310.622V50.7856Z" fill="#3F3D56"/>
<path d="M419.035 49.7297H415.87V50.7856H419.035V49.7297Z" fill="#3F3D56"/>
<path d="M298.24 86.1556H295.075V87.2115H298.24V86.1556Z" fill="#3F3D56"/>
<path d="M409.679 87.2115H403.488V86.1556H409.679V87.2115ZM397.297 87.2115H391.105V86.1556H397.297L397.297 87.2115ZM384.915 87.2115H378.723V86.1556H384.915V87.2115ZM372.533 87.2115H366.341V86.1556H372.533V87.2115ZM360.15 87.2115H353.959V86.1556H360.15V87.2115ZM347.768 87.2115H341.577V86.1556H347.768V87.2115ZM335.386 87.2115H329.195V86.1556H335.386V87.2115ZM323.004 87.2115H316.813V86.1556H323.004V87.2115ZM310.622 87.2115H304.431V86.1556H310.622V87.2115Z" fill="#3F3D56"/>
<path d="M419.035 86.1556H415.87V87.2115H419.035V86.1556Z" fill="#3F3D56"/>
<path d="M298.24 122.582H295.075V123.637H298.24V122.582Z" fill="#3F3D56"/>
<path d="M409.679 123.637H403.488V122.582H409.679V123.637ZM397.297 123.637H391.105V122.582H397.297L397.297 123.637ZM384.915 123.637H378.723V122.582H384.915V123.637ZM372.533 123.637H366.341V122.582H372.533V123.637ZM360.15 123.637H353.959V122.582H360.15V123.637ZM347.768 123.637H341.577V122.582H347.768V123.637ZM335.386 123.637H329.195V122.582H335.386V123.637ZM323.004 123.637H316.813V122.582H323.004V123.637ZM310.622 123.637H304.431V122.582H310.622V123.637Z" fill="#3F3D56"/>
<path d="M419.035 122.582H415.87V123.637H419.035V122.582Z" fill="#3F3D56"/>
<path d="M265.706 74.5416C263.273 74.5416 260.894 75.2637 258.871 76.6166C256.848 77.9695 255.271 79.8925 254.34 82.1423C253.409 84.3921 253.165 86.8677 253.64 89.2561C254.114 91.6444 255.286 93.8383 257.007 95.5602C258.727 97.2821 260.919 98.4548 263.306 98.9299C265.692 99.4049 268.166 99.1611 270.414 98.2292C272.662 97.2973 274.583 95.7192 275.935 93.6944C277.287 91.6697 278.008 89.2892 278.008 86.854C278.008 83.5886 276.712 80.4569 274.405 78.1478C272.098 75.8388 268.969 74.5416 265.706 74.5416ZM259.953 86.4353L260.633 82.8164C260.809 81.8331 261.264 81.0592 262.12 81.0592H263.405L263.479 80.7639C263.545 80.5062 263.694 80.2777 263.904 80.1146C264.114 79.9514 264.372 79.8628 264.638 79.8629H266.767C267.032 79.8628 267.29 79.9508 267.499 80.1133C267.709 80.2757 267.859 80.5032 267.925 80.7601L268 81.0592H269.292C270.129 81.0592 270.573 81.8182 270.783 82.8126V82.8164L271.466 86.439C271.472 86.4661 271.469 86.4941 271.46 86.52C271.45 86.5459 271.434 86.5687 271.412 86.5857C271.39 86.6027 271.365 86.6134 271.337 86.6166C271.31 86.6197 271.282 86.6152 271.257 86.6036L270.308 86.1661C270.286 86.1569 270.266 86.1421 270.251 86.1231C270.236 86.1041 270.226 86.0816 270.222 86.0577L269.617 82.8575C269.505 82.4462 269.348 82.2593 269.016 82.2593H262.4C262.071 82.2593 261.892 82.4575 261.798 82.8575L261.193 86.0577C261.189 86.0813 261.178 86.1035 261.164 86.1224C261.149 86.1412 261.129 86.1562 261.107 86.1661L260.162 86.5998C260.137 86.6111 260.11 86.6153 260.082 86.612C260.055 86.6087 260.029 86.598 260.008 86.5811C259.986 86.5641 259.97 86.5415 259.96 86.5158C259.95 86.4901 259.948 86.4623 259.953 86.4353ZM273.129 88.7645L271.085 93.8452C270.318 93.7684 269.585 93.484 268.967 93.0227C268.027 93.4221 267.025 93.6573 266.005 93.7181C265.9 93.7218 265.799 93.7255 265.706 93.7255C265.613 93.7255 265.512 93.7255 265.407 93.7181C264.387 93.6555 263.386 93.4203 262.445 93.0227C261.826 93.484 261.094 93.7684 260.327 93.8452L258.283 88.7645C258.252 88.6847 258.235 88.5997 258.235 88.514C258.235 88.3849 258.272 88.2586 258.341 88.15C258.411 88.0413 258.51 87.9549 258.627 87.9008L265.579 84.7043C265.618 84.6859 265.661 84.6763 265.704 84.6763C265.747 84.6763 265.79 84.6859 265.829 84.7043L272.785 87.9008C272.902 87.9549 273.001 88.0413 273.071 88.15C273.14 88.2586 273.177 88.3849 273.177 88.514C273.176 88.5997 273.16 88.6847 273.129 88.7645Z" fill="#3F3D56"/>
<path d="M270.14 120.15H266.439C266.399 120.15 266.361 120.166 266.332 120.194C266.304 120.223 266.288 120.261 266.288 120.301V125.592C266.288 125.632 266.304 125.67 266.332 125.698C266.361 125.727 266.399 125.743 266.439 125.743H270.14C270.3 125.742 270.453 125.678 270.566 125.565C270.679 125.452 270.743 125.298 270.744 125.138V120.754C270.743 120.594 270.679 120.441 270.566 120.327C270.453 120.214 270.3 120.15 270.14 120.15Z" fill="#3F3D56"/>
<path d="M269.309 126.876C269.075 126.895 268.857 127.003 268.701 127.179C268.545 127.355 268.463 127.584 268.472 127.819C268.482 128.054 268.581 128.276 268.751 128.439C268.92 128.602 269.146 128.693 269.381 128.693C269.616 128.693 269.841 128.602 270.011 128.439C270.18 128.276 270.28 128.054 270.289 127.819C270.298 127.584 270.216 127.355 270.06 127.179C269.904 127.003 269.687 126.895 269.452 126.876C269.405 126.873 269.357 126.873 269.309 126.876Z" fill="#3F3D56"/>
<path d="M262.063 126.876C261.829 126.895 261.611 127.003 261.455 127.179C261.299 127.355 261.217 127.584 261.226 127.819C261.236 128.054 261.335 128.276 261.505 128.439C261.674 128.602 261.9 128.693 262.135 128.693C262.369 128.693 262.595 128.602 262.765 128.439C262.934 128.276 263.034 128.054 263.043 127.819C263.052 127.584 262.97 127.355 262.814 127.179C262.658 127.003 262.441 126.895 262.206 126.876C262.159 126.873 262.111 126.873 262.063 126.876Z" fill="#3F3D56"/>
<path d="M265.08 120.15H261.387C261.225 120.15 261.07 120.215 260.955 120.33C260.841 120.444 260.776 120.6 260.775 120.762V125.13C260.776 125.293 260.841 125.448 260.955 125.563C261.07 125.677 261.225 125.742 261.387 125.743H265.08C265.12 125.743 265.158 125.727 265.187 125.698C265.215 125.67 265.231 125.632 265.231 125.591V120.301C265.231 120.261 265.215 120.223 265.187 120.194C265.158 120.166 265.12 120.15 265.08 120.15Z" fill="#3F3D56"/>
<path d="M265.76 111.03C263.3 111.03 260.896 111.76 258.851 113.127C256.806 114.495 255.212 116.439 254.271 118.713C253.33 120.987 253.083 123.489 253.563 125.903C254.043 128.317 255.227 130.535 256.967 132.276C258.706 134.016 260.921 135.201 263.334 135.682C265.746 136.162 268.246 135.915 270.519 134.973C272.791 134.031 274.733 132.436 276.099 130.39C277.466 128.343 278.195 125.937 278.195 123.475C278.195 120.175 276.885 117.009 274.553 114.675C272.221 112.341 269.058 111.03 265.76 111.03ZM271.801 128.539C271.8 128.94 271.641 129.323 271.358 129.607C271.075 129.89 270.691 130.05 270.291 130.051H261.229C260.828 130.05 260.445 129.89 260.162 129.607C259.879 129.323 259.719 128.94 259.718 128.539V118.109C259.719 117.789 259.847 117.482 260.073 117.255C260.3 117.029 260.606 116.901 260.926 116.9H270.593C270.913 116.901 271.22 117.029 271.446 117.255C271.673 117.482 271.8 117.789 271.801 118.109V128.539Z" fill="#3F3D56"/>
<path d="M270.178 117.958H261.342C261.269 117.953 261.197 117.963 261.128 117.987C261.06 118.012 260.997 118.05 260.944 118.099C260.891 118.149 260.848 118.209 260.819 118.276C260.79 118.342 260.775 118.414 260.775 118.487C260.775 118.56 260.79 118.632 260.819 118.698C260.848 118.765 260.891 118.825 260.944 118.875C260.997 118.924 261.06 118.963 261.128 118.987C261.197 119.011 261.269 119.021 261.342 119.016H270.178C270.25 119.021 270.323 119.011 270.391 118.987C270.46 118.963 270.522 118.924 270.576 118.875C270.629 118.825 270.671 118.765 270.7 118.698C270.729 118.632 270.744 118.56 270.744 118.487C270.744 118.414 270.729 118.342 270.7 118.276C270.671 118.209 270.629 118.149 270.576 118.099C270.522 118.05 270.46 118.012 270.391 117.987C270.323 117.963 270.25 117.953 270.178 117.958Z" fill="#3F3D56"/>
<path d="M437.497 58.1764C435.932 58.1764 434.403 57.7119 433.101 56.8418C431.8 55.9717 430.786 54.735 430.187 53.288C429.588 51.8411 429.432 50.2489 429.737 48.7128C430.042 47.1767 430.796 45.7658 431.902 44.6583C433.009 43.5509 434.419 42.7967 435.954 42.4911C437.489 42.1856 439.079 42.3424 440.525 42.9418C441.971 43.5411 443.207 44.5561 444.076 45.8583C444.946 47.1605 445.41 48.6915 445.41 50.2577C445.407 52.3571 444.573 54.3699 443.09 55.8545C441.606 57.339 439.595 58.174 437.497 58.1764ZM437.497 43.3948C436.141 43.3948 434.815 43.7973 433.688 44.5514C432.56 45.3055 431.681 46.3774 431.162 47.6314C430.643 48.8854 430.507 50.2653 430.772 51.5966C431.036 52.9278 431.689 54.1507 432.648 55.1105C433.607 56.0702 434.829 56.7239 436.16 56.9887C437.49 57.2535 438.869 57.1176 440.122 56.5981C441.375 56.0787 442.446 55.1991 443.199 54.0705C443.953 52.9419 444.355 51.615 444.355 50.2577C444.353 48.4382 443.63 46.6938 442.344 45.4072C441.058 44.1206 439.315 43.3969 437.497 43.3948Z" fill="#1F94F3"/>
<path d="M440.508 47.9915L439.762 47.245L437.497 49.5113L435.233 47.245L434.487 47.9915L436.751 50.2578L434.487 52.5241L435.233 53.2706L437.497 51.0043L439.762 53.2706L440.508 52.5241L438.243 50.2578L440.508 47.9915Z" fill="#1F94F3"/>
<path d="M437.497 94.6023C435.932 94.6023 434.403 94.1378 433.101 93.2677C431.8 92.3976 430.786 91.1609 430.187 89.7139C429.588 88.267 429.432 86.6748 429.737 85.1387C430.042 83.6027 430.796 82.1917 431.902 81.0842C433.009 79.9768 434.419 79.2226 435.954 78.9171C437.489 78.6115 439.079 78.7683 440.525 79.3677C441.971 79.967 443.207 80.982 444.076 82.2842C444.946 83.5864 445.41 85.1174 445.41 86.6836C445.407 88.783 444.573 90.7958 443.09 92.2804C441.606 93.7649 439.595 94.5999 437.497 94.6023ZM437.497 79.8207C436.141 79.8207 434.815 80.2232 433.688 80.9773C432.56 81.7314 431.681 82.8033 431.162 84.0573C430.643 85.3113 430.507 86.6912 430.772 88.0225C431.036 89.3537 431.689 90.5766 432.648 91.5364C433.607 92.4961 434.829 93.1498 436.16 93.4146C437.49 93.6794 438.869 93.5435 440.122 93.024C441.375 92.5046 442.446 91.625 443.199 90.4964C443.953 89.3678 444.355 88.0409 444.355 86.6836C444.353 84.8641 443.63 83.1197 442.344 81.8331C441.058 80.5465 439.315 79.8228 437.497 79.8207Z" fill="#1F94F3"/>
<path d="M440.508 84.4174L439.762 83.6709L437.497 85.9372L435.233 83.6709L434.487 84.4174L436.751 86.6837L434.487 88.95L435.233 89.6965L437.497 87.4302L439.762 89.6965L440.508 88.95L438.243 86.6837L440.508 84.4174Z" fill="#1F94F3"/>
<path d="M437.497 131.028C435.932 131.028 434.403 130.564 433.101 129.694C431.8 128.824 430.786 127.587 430.187 126.14C429.588 124.693 429.432 123.101 429.737 121.565C430.042 120.029 430.796 118.618 431.902 117.51C433.009 116.403 434.419 115.649 435.954 115.343C437.489 115.037 439.079 115.194 440.525 115.794C441.971 116.393 443.207 117.408 444.076 118.71C444.946 120.012 445.41 121.543 445.41 123.109C445.407 125.209 444.573 127.222 443.09 128.706C441.606 130.191 439.595 131.026 437.497 131.028ZM437.497 116.247C436.141 116.247 434.815 116.649 433.688 117.403C432.56 118.157 431.681 119.229 431.162 120.483C430.643 121.737 430.507 123.117 430.772 124.448C431.036 125.78 431.689 127.002 432.648 127.962C433.607 128.922 434.829 129.576 436.16 129.84C437.49 130.105 438.869 129.969 440.122 129.45C441.375 128.931 442.446 128.051 443.199 126.922C443.953 125.794 444.355 124.467 444.355 123.109C444.353 121.29 443.63 119.546 442.344 118.259C441.058 116.972 439.315 116.249 437.497 116.247Z" fill="#1F94F3"/>
<path d="M440.508 120.843L439.762 120.097L437.497 122.363L435.233 120.097L434.487 120.843L436.751 123.11L434.487 125.376L435.233 126.122L437.497 123.856L439.762 126.122L440.508 125.376L438.243 123.11L440.508 120.843Z" fill="#1F94F3"/>
</g>
<defs>
<clipPath id="clip0_42_1560">
<rect width="470" height="295" fill="white"/>
</clipPath>
</defs>
</svg>
