<svg width="407" height="295" viewBox="0 0 407 295" fill="none" xmlns="http://www.w3.org/2000/svg">
<g clip-path="url(#clip0_42_1527)">
<path d="M259.361 221.152V292.265H81.1897C60.8895 292.265 44.373 276.314 44.373 256.709C44.373 237.103 60.8895 221.152 81.1897 221.152H259.361Z" fill="#F2F2F2"/>
<path d="M263.737 291.718C263.737 292.443 263.448 293.139 262.936 293.652C262.423 294.165 261.727 294.453 261.002 294.453H78.0159C68.0776 294.453 58.5463 290.505 51.5189 283.478C44.4914 276.451 40.5435 266.92 40.5435 256.982C40.5435 247.044 44.4914 237.513 51.5189 230.486C58.5463 223.459 68.0776 219.511 78.0159 219.511H261.002C261.727 219.511 262.423 219.8 262.936 220.312C263.449 220.825 263.737 221.521 263.737 222.246C263.737 222.972 263.449 223.668 262.936 224.18C262.423 224.693 261.727 224.982 261.002 224.982H78.0159C69.5284 224.982 61.3886 228.353 55.3871 234.354C49.3855 240.356 46.0139 248.495 46.0139 256.982C46.0139 265.469 49.3855 273.609 55.3871 279.61C61.3886 285.611 69.5284 288.983 78.0159 288.983H261.002C261.727 288.983 262.423 289.271 262.936 289.784C263.448 290.297 263.737 290.993 263.737 291.718Z" fill="#1F94F3"/>
<path d="M259.361 237.563H67.8957C67.7506 237.563 67.6115 237.505 67.5089 237.403C67.4063 237.3 67.3486 237.161 67.3486 237.016C67.3486 236.871 67.4063 236.732 67.5089 236.629C67.6115 236.527 67.7506 236.469 67.8957 236.469H259.361C259.506 236.469 259.645 236.527 259.748 236.629C259.85 236.732 259.908 236.871 259.908 237.016C259.908 237.161 259.85 237.3 259.748 237.403C259.645 237.505 259.506 237.563 259.361 237.563Z" fill="#CCCCCC"/>
<path d="M259.361 250.691H67.8957C67.7506 250.691 67.6115 250.634 67.5089 250.531C67.4063 250.429 67.3486 250.29 67.3486 250.144C67.3486 249.999 67.4063 249.86 67.5089 249.758C67.6115 249.655 67.7506 249.597 67.8957 249.597H259.361C259.506 249.597 259.645 249.655 259.748 249.758C259.85 249.86 259.908 249.999 259.908 250.144C259.908 250.29 259.85 250.429 259.748 250.531C259.645 250.634 259.506 250.691 259.361 250.691Z" fill="#CCCCCC"/>
<path d="M259.361 263.82H67.8957C67.7506 263.82 67.6115 263.762 67.5089 263.66C67.4063 263.557 67.3486 263.418 67.3486 263.273C67.3486 263.128 67.4063 262.989 67.5089 262.886C67.6115 262.783 67.7506 262.726 67.8957 262.726H259.361C259.506 262.726 259.645 262.783 259.748 262.886C259.85 262.989 259.908 263.128 259.908 263.273C259.908 263.418 259.85 263.557 259.748 263.66C259.645 263.762 259.506 263.82 259.361 263.82Z" fill="#CCCCCC"/>
<path d="M259.361 276.948H67.8957C67.7506 276.948 67.6115 276.891 67.5089 276.788C67.4063 276.686 67.3486 276.546 67.3486 276.401C67.3486 276.256 67.4063 276.117 67.5089 276.015C67.6115 275.912 67.7506 275.854 67.8957 275.854H259.361C259.506 275.854 259.645 275.912 259.748 276.015C259.85 276.117 259.908 276.256 259.908 276.401C259.908 276.546 259.85 276.686 259.748 276.788C259.645 276.891 259.506 276.948 259.361 276.948Z" fill="#CCCCCC"/>
<path d="M397.061 234.538L352.441 289.912L213.703 178.129C197.896 165.393 195.043 142.609 207.344 127.343C219.646 112.077 242.515 110.019 258.322 122.755L397.061 234.538Z" fill="#F2F2F2"/>
<path d="M356.193 292.232C355.737 292.797 355.076 293.157 354.355 293.235C353.634 293.313 352.912 293.101 352.347 292.646L209.859 177.842C202.12 171.606 197.176 162.552 196.113 152.671C195.05 142.791 197.956 132.892 204.191 125.154C210.427 117.415 219.481 112.471 229.362 111.408C239.243 110.345 249.142 113.251 256.881 119.486L399.369 234.29C399.648 234.515 399.881 234.794 400.054 235.109C400.226 235.424 400.335 235.77 400.373 236.128C400.412 236.485 400.379 236.846 400.278 237.191C400.177 237.536 400.009 237.857 399.784 238.137C399.558 238.417 399.28 238.649 398.964 238.822C398.649 238.994 398.303 239.102 397.945 239.14C397.588 239.179 397.227 239.146 396.882 239.045C396.537 238.944 396.216 238.775 395.936 238.55L253.449 123.745C250.177 121.107 246.416 119.139 242.383 117.954C238.35 116.768 234.123 116.389 229.944 116.838C225.764 117.287 221.714 118.555 218.024 120.569C214.335 122.583 211.078 125.305 208.441 128.578C205.803 131.851 203.837 135.612 202.653 139.645C201.469 143.678 201.092 147.906 201.542 152.085C201.993 156.264 203.262 160.314 205.278 164.002C207.294 167.691 210.017 170.946 213.291 173.582L355.779 288.386C356.343 288.842 356.704 289.502 356.782 290.224C356.859 290.945 356.647 291.667 356.193 292.232Z" fill="#CCCCCC"/>
<path d="M386.764 247.317L237.674 127.193C237.618 127.148 237.572 127.092 237.537 127.029C237.503 126.966 237.481 126.897 237.473 126.825C237.466 126.754 237.472 126.682 237.492 126.613C237.513 126.544 237.546 126.48 237.591 126.424C237.636 126.368 237.692 126.321 237.755 126.287C237.818 126.252 237.887 126.231 237.959 126.223C238.03 126.215 238.102 126.222 238.171 126.242C238.24 126.262 238.305 126.296 238.36 126.341L387.451 246.465C387.507 246.51 387.553 246.566 387.588 246.629C387.622 246.692 387.644 246.761 387.652 246.833C387.659 246.904 387.653 246.976 387.633 247.045C387.613 247.114 387.579 247.179 387.534 247.235C387.489 247.291 387.433 247.337 387.37 247.372C387.307 247.406 387.238 247.428 387.166 247.435C387.095 247.443 387.022 247.437 386.953 247.416C386.884 247.396 386.82 247.362 386.764 247.317Z" fill="#CCCCCC"/>
<path d="M378.527 257.54L229.437 137.416C229.324 137.325 229.252 137.193 229.237 137.049C229.221 136.904 229.264 136.76 229.354 136.647C229.445 136.534 229.577 136.462 229.722 136.447C229.866 136.431 230.01 136.473 230.123 136.564L379.213 256.688C379.269 256.733 379.316 256.789 379.35 256.852C379.385 256.915 379.407 256.984 379.414 257.056C379.422 257.127 379.416 257.199 379.395 257.268C379.375 257.337 379.342 257.402 379.296 257.458C379.251 257.514 379.196 257.56 379.133 257.595C379.069 257.629 379 257.651 378.929 257.658C378.857 257.666 378.785 257.659 378.716 257.639C378.647 257.619 378.583 257.585 378.527 257.54Z" fill="#CCCCCC"/>
<path d="M370.29 267.763L221.199 147.639C221.086 147.548 221.014 147.416 220.999 147.271C220.983 147.127 221.026 146.983 221.117 146.87C221.208 146.757 221.34 146.684 221.484 146.669C221.628 146.653 221.773 146.696 221.886 146.787L370.976 266.911C371.032 266.956 371.078 267.012 371.113 267.075C371.147 267.138 371.169 267.207 371.177 267.278C371.184 267.35 371.178 267.422 371.158 267.491C371.137 267.56 371.104 267.624 371.059 267.68C371.014 267.736 370.958 267.783 370.895 267.817C370.832 267.851 370.763 267.873 370.691 267.881C370.62 267.888 370.548 267.882 370.479 267.862C370.41 267.841 370.345 267.808 370.29 267.763Z" fill="#CCCCCC"/>
<path d="M362.052 277.986L212.962 157.862C212.906 157.817 212.86 157.761 212.825 157.698C212.791 157.635 212.769 157.566 212.761 157.494C212.754 157.423 212.76 157.351 212.78 157.282C212.801 157.213 212.834 157.148 212.879 157.092C212.924 157.037 212.98 156.99 213.043 156.956C213.106 156.921 213.175 156.899 213.247 156.892C213.318 156.884 213.39 156.891 213.459 156.911C213.528 156.931 213.593 156.965 213.649 157.01L362.739 277.134C362.795 277.179 362.841 277.234 362.876 277.297C362.91 277.361 362.932 277.43 362.94 277.501C362.948 277.573 362.941 277.645 362.921 277.714C362.901 277.783 362.867 277.847 362.822 277.903C362.777 277.959 362.721 278.006 362.658 278.04C362.595 278.075 362.526 278.096 362.454 278.104C362.383 278.112 362.31 278.105 362.241 278.085C362.172 278.065 362.108 278.031 362.052 277.986Z" fill="#CCCCCC"/>
<path d="M406.453 295H0.547043C0.401958 295 0.262815 294.942 0.160225 294.84C0.0576343 294.737 0 294.598 0 294.453C0 294.308 0.0576343 294.169 0.160225 294.066C0.262815 293.964 0.401958 293.906 0.547043 293.906H406.453C406.598 293.906 406.737 293.964 406.84 294.066C406.942 294.169 407 294.308 407 294.453C407 294.598 406.942 294.737 406.84 294.84C406.737 294.942 406.598 295 406.453 295Z" fill="#CCCCCC"/>
<path d="M184.944 213.678L178.691 213.677L175.717 189.556L184.947 189.557L184.944 213.678Z" fill="#FFB8B8"/>
<path d="M174.223 211.891H186.284V219.484H166.629C166.629 218.487 166.826 217.5 167.207 216.578C167.589 215.657 168.148 214.82 168.854 214.115C169.559 213.409 170.396 212.85 171.317 212.469C172.238 212.087 173.226 211.891 174.223 211.891Z" fill="#2F2E41"/>
<path d="M121.052 213.678L114.799 213.677L111.825 189.556L121.055 189.557L121.052 213.678Z" fill="#FFB8B8"/>
<path d="M110.331 211.891H122.392V219.484H102.738C102.738 218.487 102.934 217.5 103.316 216.578C103.697 215.657 104.257 214.82 104.962 214.115C105.667 213.409 106.504 212.85 107.426 212.469C108.347 212.087 109.334 211.891 110.331 211.891Z" fill="#2F2E41"/>
<path d="M141.942 34.7538V32.0187C141.942 27.3399 143.801 22.8528 147.109 19.5444C150.418 16.236 154.905 14.3773 159.584 14.3773C164.263 14.3773 168.75 16.236 172.059 19.5444C175.367 22.8528 177.226 27.3399 177.226 32.0187V34.7538C177.226 38.1269 175.886 41.3618 173.501 43.747C171.116 46.1321 167.881 47.472 164.507 47.472H154.661C152.99 47.472 151.337 47.1431 149.793 46.5039C148.25 45.8648 146.848 44.928 145.667 43.747C144.486 42.566 143.549 41.1639 142.91 39.6209C142.271 38.0778 141.942 36.424 141.942 34.7538Z" fill="#2F2E41"/>
<path d="M159.584 48.4132C167.004 48.4132 173.02 42.398 173.02 34.9778C173.02 27.5577 167.004 21.5425 159.584 21.5425C152.163 21.5425 146.148 27.5577 146.148 34.9778C146.148 42.398 152.163 48.4132 159.584 48.4132Z" fill="#FFB8B8"/>
<path d="M86.5008 81.1533C87.046 80.6385 87.6975 80.2495 88.4094 80.0137C89.1212 79.7778 89.8762 79.701 90.6209 79.7884C91.3657 79.8759 92.0823 80.1256 92.7201 80.52C93.358 80.9143 93.9016 81.4438 94.3127 82.0709L105.83 79.8923L108.862 86.5684L92.553 89.4166C91.4536 90.0374 90.1647 90.2333 88.9305 89.9672C87.6962 89.7011 86.6025 88.9916 85.8565 87.9731C85.1104 86.9545 84.764 85.6977 84.8827 84.4408C85.0015 83.1839 85.5772 82.0142 86.5008 81.1533Z" fill="#FFB8B8"/>
<path d="M149.26 57.1026L130.373 69.5442L98.5028 79.7205C98.0803 79.8563 97.718 80.1342 97.4774 80.5071C97.2368 80.8799 97.1329 81.3246 97.1833 81.7654L97.8786 87.7535C97.9094 88.0185 97.9953 88.2741 98.1307 88.504C98.2661 88.7339 98.4481 88.933 98.6649 89.0884C98.8818 89.2439 99.1287 89.3523 99.3899 89.4068C99.6511 89.4612 99.9208 89.4605 100.182 89.4046L130.176 82.9756C131.628 82.6663 133 82.062 134.208 81.2003L155.427 66.1043C156.196 65.554 156.81 64.8141 157.209 63.9564C157.607 63.0988 157.777 62.1526 157.702 61.2098C157.624 60.2658 157.302 59.3582 156.767 58.5765C156.232 57.7948 155.503 57.1658 154.651 56.7513C153.799 56.3369 152.854 56.1514 151.909 56.213C150.963 56.2745 150.051 56.5811 149.26 57.1026Z" fill="#CCCCCC"/>
<path d="M178.803 206.833C178.323 206.833 177.853 206.693 177.451 206.431C177.049 206.168 176.733 205.795 176.539 205.355L147.869 134.516C147.802 134.362 147.69 134.233 147.547 134.145C147.404 134.057 147.238 134.015 147.071 134.024C146.903 134.034 146.743 134.094 146.611 134.197C146.479 134.301 146.382 134.442 146.333 134.602L122.942 203.567C122.843 203.888 122.68 204.185 122.462 204.441C122.244 204.696 121.976 204.904 121.675 205.053C121.373 205.201 121.045 205.286 120.71 205.302C120.374 205.319 120.039 205.266 119.724 205.148L111.881 202.207C111.455 202.049 111.081 201.776 110.802 201.418C110.522 201.06 110.347 200.632 110.296 200.181C106.767 169.442 137.539 91.8545 137.85 91.0746L137.936 90.8585L165.987 97.0632L166.045 97.1268C177.237 109.335 186.435 186.336 188.166 201.648C188.23 202.201 188.105 202.76 187.809 203.231C187.514 203.703 187.066 204.061 186.541 204.244L179.617 206.693C179.356 206.786 179.08 206.833 178.803 206.833Z" fill="#2F2E41"/>
<path d="M154.634 99.5607C147.838 99.5607 140.261 98.2057 137.928 92.6132L137.875 92.4847L137.947 92.3656C139.788 89.3452 142.221 84.1928 140.913 83.2257C138.337 81.321 137.087 78.1876 137.198 73.9125C137.439 64.6318 143.763 56.3921 152.934 53.4088C155.494 52.5896 158.1 51.9189 160.737 51.4C162.66 51.012 164.644 51.0547 166.549 51.5249C168.453 51.9952 170.229 52.8813 171.75 54.1196C173.29 55.366 174.535 56.9381 175.396 58.7229C176.256 60.5077 176.71 62.4609 176.726 64.4422C176.822 74.3601 175.295 88.1737 167.475 97.6573C167.108 98.0973 166.598 98.394 166.034 98.495C162.272 99.1755 158.457 99.5321 154.634 99.5607Z" fill="#CCCCCC"/>
<path d="M152.106 99.1893C152.476 97.8626 153.354 96.7355 154.55 96.0529C155.746 95.3703 157.164 95.1873 158.494 95.5438C158.766 95.6197 159.031 95.7178 159.286 95.8372L168.031 87.8787L174.113 91.976L161.607 103.043C161.042 104.061 160.153 104.861 159.081 105.316C158.01 105.77 156.816 105.853 155.692 105.552C155.037 105.372 154.424 105.065 153.888 104.647C153.353 104.23 152.905 103.71 152.572 103.118C152.238 102.527 152.025 101.875 151.945 101.201C151.865 100.526 151.92 99.8425 152.106 99.1893Z" fill="#FFB8B8"/>
<path d="M166.647 99.2903C166.079 99.2907 165.529 99.0945 165.09 98.735L161.641 95.9169C161.354 95.6819 161.123 95.385 160.967 95.0483C160.81 94.7117 160.732 94.344 160.738 93.9728C160.743 93.6016 160.833 93.2364 161 92.9048C161.167 92.5731 161.406 92.2835 161.701 92.0575L176.166 80.9641C176.337 80.832 176.45 80.6375 176.479 80.423C176.508 80.2085 176.451 79.9912 176.321 79.8182L167.393 68.0157C166.356 66.649 165.835 64.9594 165.924 63.246C166.013 61.5326 166.705 59.9059 167.878 58.6538C169.114 57.3196 170.806 56.4985 172.618 56.3535C174.431 56.2086 176.232 56.7503 177.664 57.8712L177.72 57.9308L187.043 71.2793C188.051 72.0697 188.863 73.0825 189.415 74.2384C189.967 75.3944 190.244 76.6623 190.225 77.9432C190.206 79.224 189.891 80.4831 189.305 81.6221C188.719 82.7612 187.877 83.7493 186.846 84.5093L168.112 98.8077C167.688 99.1212 167.174 99.2903 166.647 99.2903Z" fill="#CCCCCC"/>
<path d="M147.683 31.1982V24.5321L159.583 19.3354L170.931 24.5321V31.1982C170.931 31.4884 170.816 31.7666 170.611 31.9718C170.405 32.177 170.127 32.2922 169.837 32.2922H148.777C148.486 32.2922 148.208 32.177 148.003 31.9718C147.798 31.7666 147.683 31.4884 147.683 31.1982Z" fill="#2F2E41"/>
<path d="M159.037 15.2616C157.287 9.66097 160.963 3.24234 166.395 1.02545C171.828 -1.19144 178.328 0.358233 182.913 4.02087C187.497 7.6835 190.341 13.1694 191.848 18.8403C193.356 24.5111 193.642 30.4244 193.92 36.2855C200.595 37.5116 205.136 45.4285 202.823 51.809C200.511 58.1894 191.952 61.3593 186.041 58.0244C180.13 54.6895 178.418 45.7249 182.684 40.4466C184.703 37.9491 185.831 34.8495 185.889 31.6388C185.947 28.4281 184.932 25.2898 183.005 22.721C181.078 20.1522 178.349 18.2997 175.25 17.4569C172.151 16.6141 168.86 16.8293 165.897 18.0682C162.607 19.4439 158.479 15.8695 159.037 15.2616Z" fill="#2F2E41"/>
<path d="M84.0335 55.2943C76.0415 55.2419 68.1495 53.5135 60.8672 50.2208C60.4337 50.0276 60.0658 49.7125 59.8082 49.3139C59.5506 48.9153 59.4145 48.4504 59.4165 47.9758V28.0545C59.4172 27.4019 59.6768 26.7762 60.1383 26.3147C60.5998 25.8532 61.2256 25.5936 61.8782 25.5929H106.189C106.841 25.5936 107.467 25.8532 107.929 26.3147C108.39 26.7762 108.65 27.4019 108.65 28.0545V47.9758C108.652 48.4504 108.516 48.9153 108.259 49.3139C108.001 49.7125 107.633 50.0276 107.2 50.2208C99.9175 53.5135 92.0254 55.2419 84.0335 55.2943Z" fill="#1F94F3"/>
<path d="M84.0277 39.1556C83.6992 39.1559 83.374 39.0905 83.0711 38.9633L47.9335 24.1393C47.4803 23.9481 47.0949 23.6256 46.8267 23.2134C46.5586 22.8011 46.4201 22.318 46.4291 21.8263C46.4381 21.3346 46.5942 20.8569 46.8773 20.4547C47.1604 20.0526 47.5574 19.7444 48.0172 19.57L83.1553 6.24039C83.7213 6.02471 84.347 6.02604 84.912 6.24413L119.579 19.5737C120.037 19.7496 120.431 20.0578 120.712 20.459C120.993 20.8602 121.148 21.3361 121.157 21.8258C121.166 22.3156 121.029 22.7969 120.763 23.2082C120.497 23.6195 120.114 23.9421 119.664 24.1347L84.9959 38.9585C84.6898 39.0888 84.3604 39.1559 84.0277 39.1556Z" fill="#1F94F3"/>
<path d="M63.5194 51.5762C65.3321 51.5762 66.8015 50.1067 66.8015 48.2941C66.8015 46.4814 65.3321 45.012 63.5194 45.012C61.7068 45.012 60.2373 46.4814 60.2373 48.2941C60.2373 50.1067 61.7068 51.5762 63.5194 51.5762Z" fill="#3F3D56"/>
<path opacity="0.2" d="M119.783 22.0305L85.1154 36.8543C84.8451 36.9699 84.5543 37.0298 84.2604 37.0305C83.9664 37.0312 83.6754 36.9727 83.4045 36.8584L48.2669 22.0349C47.8256 21.8531 47.4575 21.5296 47.2206 21.1153C47.0657 21.3839 46.9697 21.6825 46.939 21.9911C46.9083 22.2997 46.9436 22.6113 47.0425 22.9052C47.1415 23.1991 47.3018 23.4686 47.5129 23.6958C47.724 23.923 47.981 24.1027 48.2669 24.2229L83.4045 39.0465C83.6754 39.1608 83.9664 39.2193 84.2604 39.2186C84.5543 39.2179 84.8451 39.1579 85.1154 39.0424L119.783 24.2186C120.068 24.0973 120.323 23.917 120.533 23.6897C120.742 23.4624 120.901 23.1933 120.999 22.9C121.097 22.6067 121.132 22.296 121.101 21.9883C121.07 21.6807 120.974 21.3831 120.82 21.1152C120.584 21.5262 120.22 21.848 119.783 22.0305Z" fill="black"/>
<path d="M63.7951 48.2813C63.9402 48.2813 64.0793 48.2237 64.1819 48.1211C64.2845 48.0185 64.3421 47.8794 64.3421 47.7343V29.4302L82.3835 22.8577C82.5285 22.8599 82.6685 22.8043 82.7726 22.7033C82.8768 22.6022 82.9365 22.4639 82.9386 22.3188C82.9408 22.1738 82.8852 22.0338 82.7842 21.9296C82.6831 21.8255 82.5448 21.7658 82.3997 21.7637L64.3584 28.3362C64.2132 28.3328 64.0689 28.359 63.9341 28.4131C63.7993 28.4672 63.6769 28.5481 63.5743 28.6508C63.4706 28.7524 63.3883 28.8736 63.3323 29.0075C63.2763 29.1414 63.2476 29.2851 63.2481 29.4302V47.7343C63.2481 47.8794 63.3057 48.0185 63.4083 48.1211C63.5109 48.2237 63.65 48.2813 63.7951 48.2813Z" fill="#3F3D56"/>
</g>
<defs>
<clipPath id="clip0_42_1527">
<rect width="407" height="295" fill="white"/>
</clipPath>
</defs>
</svg>
